<?xml version="1.0" encoding="utf-8"?>

<!DOCTYPE svg PUBLIC "-//W3C//DTD SVG 1.1//EN" "http://www.w3.org/Graphics/SVG/1.1/DTD/svg11.dtd">
<svg version="1.1" id="Layer_1" xmlns="http://www.w3.org/2000/svg" xmlns:xlink="http://www.w3.org/1999/xlink" x="0px" y="0px"
	 viewBox="0 0 1901.365 1685.52" enable-background="new 0 0 1901.365 1685.52" xml:space="preserve">
<g>
	<g>
		<path fill="none" d="M1440.863,998.503c-5.609-2.521-2.708-3.062-1.057-7.006c0.76-1.817,0.398-5.355,0.651-7.413
			c0.339-2.762,2.101-7.288,3.091-10.101c1.759-5.003,9.001-5.48,13.339-4.724c1.527-6.652-2.367-4.416,3.823-8.31
			c0-3.992-6.321-10.872,0.406-13.115c10.642-3.546,11.578-10.414,13.258-20.203c0.499-2.913-1.586-7.591-2.603-10.346
			c-1.957-5.302-7.531-2.045-9.272-8.961c0.428-1.674,1.136-4.064,0.814-5.702c-1.345-0.333-0.374-4.081-2.928-3.177
			c-5.093,1.803-6.641,0.115-10.248-3.503c-1.26-1.262,0.255-4.166-1.545-5.295l-8.703-5.458c-1.612-1.012-10.694-12.8-12.85-11.078
			c-11.209,8.946-4.332-16.113-10.086-15.804c-2.549,0.136-3.514-0.815-5.531-0.815c-1.751,0-6.75,4.926-6.75,0.733
			c0-4.172,1.425-8.064-5.449-8.472c-2.292-1.147-2.458-2.07-3.417-4.317c-0.563-1.324-1.798-1.886-1.87-3.503
			c-0.083-1.838,1.595-2.849,1.219-4.643c-0.432-2.057-0.753-4.582-2.521-6.029l-1.547-1.059v0
			c-1.735,1.005-3.367,2.219-5.206,3.015c-5.688,2.465-10.923,1.738-16.591,2.606c-7.662,1.174-5.824,8.297-9.434,9.613
			c-11.017,4.016-18.544-1.714-27.166,8.472c-2.391,2.825-10.173,15.488-13.338,14.826c-4.104-0.859-4.376-5.215-8.458-1.629
			c-4.591,4.034-2.583,10.369-11.062,6.354c-3.758-1.779-3.613-0.16-6.913,1.547c-2.724,1.409-3.45,7.372-5.368,10.02
			c-3.142,4.339-5.205,0.817-5.205,7.738c0,3.003-1.648,3.849-3.579,5.784c-6.655,6.668-8.387,17.438-15.779,23.379
			c-2.895,2.327-3.391,3.403-5.368,6.354c-2.106,3.144,0.096,5.021-1.546,7.332c-1.539,2.166-4.799,3.239-5.937,5.621
			c-0.604,1.266,0.897,2.603-0.163,3.747c-1.387,1.496-5.489,0.165-6.263,2.688c-1.667,5.427-3.556,2.185-6.994,4.97
			c-4.221,3.419-9.003,0.226-11.875,5.213c-1.384,2.403-4.884,0.75-6.67,3.666c-2.382,3.889-3.927,1.573-6.75,3.584
			c-0.691,0.492-1.53,0.741-2.278,1.14c-0.224,0.119-0.446,0.236-0.662,0.351c-0.812,4.994,5.86,9.637,7.901,14.068
			c2.851,6.19,5.261,13.565,6.67,20.284c0.191,0.592,0.403,1.196,0.626,1.804c1.35,3.679,3.263,7.572,5.392,10.659
			c2.295,3.328,6.079,1.75,7.727,5.702c1.853,4.447,1.776,12.511,7.238,13.278c4.23,0.594,8.151-2.329,5.287,3.422
			c-3.303,6.635-3.142,8.672-1.382,15.559c0.296,1.16-1.981,6.474,1.138,5.376c2.226-0.784,6.93-3.163,9.11-2.851
			c0.853,3.452-0.349,6.989,3.09,9.286c5.552,1.176,3.365,0.448,5.124,4.399c1.422,3.196,3.898,1.864,5.693,3.665
			c0,8.81,8.654,10.173,13.909,16.292c6.656,7.753,12.153,3.992,21.715,3.992c1.048,1.39-0.422,3.14,2.034,4.643
			c3.621,2.219,9.888,0.739,14.152,1.63c0.99,0.206,4.39,3.472,4.718,0.978c0.558-4.257-1.065-6.192,2.928-9.613
			c2.845-2.436,2.656-6.215,4.31-9.531c-1.88-5.683-3.243-9.065,3.985-11.487c6.15,0,5.125-4.131,5.125-8.879
			c-3.555-2.825-6.897-7.92-4.881-11.975c0.278-0.054,0.432-0.081,0.732-0.081c1.925,1.925,8.878,0.673,10.98-0.57
			c2.627-1.553,1.497-2.977,2.034-5.458c0.815-3.766,5.497-7.843,8.784-7.169c5.77,1.184,8.077-3.539,13.094-4.561
			c3.223-0.657,6.637,1.877,9.597,2.688c5.863,1.604,8.135-3.314,13.745-3.502c7.911-0.265,9.982-3.763,16.999-6.924
			c6.007-2.431,9.861-6.847,15.127-10.264c2.406-1.562,8.048-2.871,8.378-5.539c2.04-1.025,3.8-2.066,4.519-3.165
			C1444.936,1001.444,1444.313,1000.053,1440.863,998.503z"/>
		<path fill="none" d="M435.897,1642.723c0.353,0.05,0.724,0.049,1.107,0H435.897z"/>
		<path fill="none" d="M1503.544,42.791h2.504C1505.164,42.748,1504.332,42.751,1503.544,42.791z"/>
		<path fill="#002395" d="M443.39,1639.932c2.493-1.246,1.319-9.67,7.564-13.033c5.305-2.858,7.218-1.554,12.362-2.281
			c1.271-5.06,1.463-6.808,6.263-10.02c8.721,1.25,11.994-8.589,16.429-13.849c8.818-10.454,24.795-9.321,36.844-7.25
			c2.012,0.346,7.738,2.301,9.435,0.733c4.644-4.29-3.335-4.395-3.335-7.82c11.293-6.423,15.37-5.812,28.224-3.584
			c4.77,1.023,8.765,0.878,13.176,3.422c17.172,9.904,19.685-6.028,35.054-6.028c7.089,0,14.046,6.212,19.927,4.643l19.845-5.295
			c0.512-3.644,5.043-5.726,5.043-7.82c-7.246-3.623,0.091-8.04,4.717-10.509c3.303,0.619,10.943-1.396,14.64-1.874
			c12.682-1.639-4.895-5.682,1.627-12.219c13.524-13.555,28.029-0.826,40.666-9.776c6.219-4.405,11.018-3.991,18.219-4.806
			c4.368-0.495,5.285-0.339,8.54,2.118c3.382,2.554,7.414,2.358,11.142,3.992c6.298,1.978,11.066,5.411,17.894,3.258
			c6.487-2.046,14.538,2.933,22.123,2.933c5.66,0,7.957,5.051,13.176,5.051c3.928,0,8.51-0.923,5.938-5.539
			c-2.981-5.346,6.884-13.197,12.038-13.197c9.378,0,15.996-2.2,25.701,1.385c11.88,6.102,33.35,7.077,46.767,8.96
			c6.572,0.922,12.593,5.152,18.462,5.784c6.441,0.694,12.031-2.725,14.721,5.376c3.162,2.538,7.664,3.259,11.712,3.259
			c7.545-0.519,13.909,3.124,20.985,1.955c3.422-0.566,9.302,2.661,12.118,1.059v-0.407c-1.841-1.311-4.251-7.015-1.871-8.716
			c0.634-3.503,8.909-3.78,9.109-8.88c0.486-12.361,12.911-14.174,23.424-14.174c10.36,0,22.191,8.322,32.778,9.694
			c7.406-1.794,20.691,5.294,28.06,0.734c3.173-1.963-6.261-10.69-7.482-13.278c-5.149-10.906,16.623-23.474,23.749-26.312
			c17.935-7.146,32.356-3.162,48.8,4.399c10.278-2.357,16.742,4.372,26.759-1.466l18.869-10.998
			c4.86-2.833,8.211-4.427,13.909-5.051c7.638-0.838,10.04-8.067,18.056-8.96c8.438-0.94,16.321-7.151,21.472-13.442
			c4.983-1.174,14.427-9.153,18.544-12.382l26.27-20.61c7.962-6.247,15.08-13.037,24.075-17.922l22.448-18.003
			c3.542-2.841,9.933-6.197,12.037-10.183c1.68-3.182,0.883-7.676,5.206-9.287c7.062-2.63,10.213-2.187,15.778-8.391
			c5.477-6.105,15.59-13.437,22.529-17.677l28.223-31.362c10.389-11.544,22.494-22.254,32.371-34.133
			c3.837-5.866,6.351-14.031,12.688-17.025c5.621-2.654,8.622-10.06,11.712-15.152c2.089-3.442,6.352-4.446,6.832-8.31
			c0.94-7.573,8.045-9.762,13.583-13.034c6.757-3.993,12.481-10.14,17.649-15.967c6.509-2.54,8.216-10.618,14.722-13.522
			c4.697-2.096,8.978-0.503,12.688-5.132l33.753-42.115c3.981-1.636,7.485-11.413,10.33-15.071
			c4.932-6.343,8.087-15.446,12.525-22.321l3.286-5.089h-519.927l-632.291,531.277c0.936,0.639,1.9,1.244,2.945,1.766
			c0.277,0.139,0.575,0.221,0.885,0.265h1.107C439.205,1642.443,441.78,1640.737,443.39,1639.932z"/>
		<path fill="#DE3831" d="M1623.098,576.099c0.627-3.824,1.555-6.96,2.879-8.448c8.124-9.124,15.117-21.117,21.066-31.852
			c3.614-6.824,9.377-15.476,10.98-23.053c1.284-6.064,5.623-9.043,9.76-13.197c2.557-2.568,8.639-7.566,10.004-10.59
			c2.269-5.023,8.419-5.435,13.176-6.354l49.613,33.888l11.466-6.272c-2.43-5.375-5.379-12.329-3.253-18.248
			c2.265-6.309,5.303-12.658,6.1-19.388c0.545-4.604-1.924-10.967-0.898-14.745l3.253-49.204l-1.951-73.478
			c-0.511-8.735-0.284-16.215-3.417-24.276c-2.779-7.148-8.458-14.033-8.458-22.483c-0.813-13.092-0.993-19.719-11.223-28.024
			c-10.276-8.339-5.371-20.154-10.736-29.977c-4.09-7.487-11.357-11.367-13.176-20.528c-1.658-8.351,1.202-26.655,3.404-35.122
			l-24.709-98.577c-3.638-1.789-6.712-3.824-7.729-5.682c-1.278-2.337-2.342-2.037-5.693-2.037c-2.543,0-2.273-2.205-4.311-2.281
			c-6.99-0.263-8.919,2.861-15.616-0.325c-7.673-3.651-18.145-5.288-26.352-3.177c-3.133,0.805-5.625,0.023-8.539,0.488
			c-3.297,0.526-6.456,3.796-9.923,2.199c-5.345-2.461-7.746,2.466-12.525,0c-3.853-1.988-4.309,0.611-7.645,2.281
			c-3.309,1.656-7.068-0.203-10.574,0.244c-10.095,1.291-6.096-5.203-13.339-6.679c-4.419-0.901-8.886,4.507-12.525,0.162
			c-3.485-4.163-15.327-10.241-27.198-14.307c-6.842-2.343-13.689-4.012-18.96-4.268h-2.504c-2.17,0.112-3.958,0.541-5.181,1.387
			c-3.367,2.332-11.467,1.727-15.696,1.548c-3.598-0.152-8.403,2.563-12.357,3.823c-1.669,0.532-3.186,0.805-4.398,0.494
			c-3.124-0.803-6.858-1.42-10.257-1.322c-0.95,0.027-1.877,0.112-2.756,0.263c-4.14,0.713-6.251,4.398-10.98,4.398
			c-4.538,0-8.281-1.339-10.085,4.318c-0.907,2.849-2.812,2.827-3.823,4.97c-1.784,3.782,1.183,16.213-5.774,17.839
			c-3.307,0.772-8.205-3.46-10.004,1.956c-1.406,4.233-7.896,4.137-11.955,5.539c-3.929,1.358-8.43,6.298-12.201,5.458
			c-5.724-1.276-6.83,3.753-11.304,3.584c-1.325-0.049-5.472-2.331-7.24-2.852c-3.006-0.886-8.939,0.203-11.55,1.874
			c-4.228,2.706-7.193,7.12-10.898,9.449c-0.854,0.537-2.425-0.178-3.09,0.489c-1.963,1.968-3.41,4.308-5.532,6.436
			c-0.838,0.841,0.309,2.788-0.406,4.072c-1.218,2.187-6.657,6.548-8.783,7.821c-3.105,1.858-6.241,2.515-3.823,6.68
			c1.158,1.996,0.869,3.747-1.302,5.051c-2.523,1.516-11.054,5.099-10.573,8.391c1.983,13.541-14.785,11.281-18.137,21.913
			c-4.395,13.945-7.981,0.13-12.607,6.191c-2.735,3.583-6.249-1.846-7.889,3.748c-1.003,3.419-1.21,8.333-3.335,11.16
			c-1.868,2.485-2.886,7.267-6.995,5.214c-2.797-1.398-5.705,0.148-6.1,3.096c-0.643,4.796-10.354-1.571-11.387-0.652
			c-3.537,3.149-3.507,6.024-8.377,8.064c-3.396,1.423-8.97,7.744-11.387,6.68c-3.354-1.477-3.035,4.519-3.823,5.947
			c-2.097,3.799-6.628-0.114-5.448,7.006c0.899,5.435-3.694,4.595-6.019,1.222c-2.051-2.976-6.018,7.623-6.018,8.227
			c0,0.95,0,1.901,0,2.852c0,1.221,0,2.443,0,3.666c0,3.213-2.017,5.087-2.44,7.983c-0.425,2.908,2.046,4.105,1.219,7.332
			c-0.78,3.045-1.98,4.51-3.335,7.087c-1.076,2.047,0.079,4.138-1.057,5.785c-2.434,3.525-2.658,7.104-5.043,10.997
			c-1.883,3.076,0.254,5.81,0.814,9.042c0.434,2.508-2.115,10.359-3.741,12.3c-4.411,5.267-13.019,3.674-16.592,8.635
			c-1.393,1.935-6.762,6.305-8.621,7.576c-3.628,2.481-9.652,5.795-11.955,9.124c-2.022,2.922-1.074,8.245-1.952,11.73
			c-0.939,3.732-3.91,4.063-5.708,6.671l-17.228,4.082c-8.185,3.763-17.599,2.494-25.05,6.436
			c-7.862,4.158-13.61,1.411-21.229,3.421c-2.411,0.637,2.433,6.468,1.139,8.472c-2.097,3.247,2.641,5.403,1.708,10.101
			c-1.494,7.526-7.057,17.262-10.085,24.684c-1.912,4.689-3.158,11.717-6.019,15.641c-6.149,12.298-6.75,25.61-12.119,38.205
			c-6.485,15.216-14.167,17.05-27.897,25.172c-9.026,5.339-18.984,0.645-28.71,1.303c-2.177,0-4.157-2.865-7.402-3.34
			c-2.254-0.331-4.531,0.085-6.262,1.629c-3.121,2.783-8.992,7.82-12.932,7.82c-4.587,0-6.403,2.692-11.387,1.222
			c-2.147-0.633-3.865-0.691-5.43-0.549l105.621,88.747H1623.098z"/>
		<path fill="#FFFFFF" d="M1584.286,1109.415l11.598-17.964c4.936-0.965,14.178-23.242,16.511-28.349
			c4.866-10.657,11.938-20.321,15.697-31.607c3.923-4.491,5.456-10.504,9.841-15.396l10.004-11.16
			c0.674-0.752,1.197-1.479,1.605-2.187h-205.462c-0.719,1.099-2.48,2.14-4.519,3.165c-0.33,2.668-5.971,3.977-8.378,5.539
			c-5.266,3.418-9.121,7.834-15.127,10.264c-7.017,3.162-9.088,6.66-16.999,6.924c-5.61,0.188-7.882,5.106-13.745,3.502
			c-2.96-0.81-6.374-3.344-9.597-2.688c-5.018,1.022-7.325,5.745-13.094,4.561c-3.287-0.675-7.968,3.402-8.784,7.169
			c-0.537,2.481,0.593,3.905-2.034,5.458c-2.102,1.244-9.055,2.495-10.98,0.57c-0.3,0-0.454,0.027-0.732,0.081
			c-2.016,4.055,1.326,9.15,4.881,11.975c0,4.748,1.026,8.879-5.125,8.879c-7.228,2.422-5.865,5.804-3.985,11.487
			c-1.654,3.316-1.465,7.095-4.31,9.531c-3.993,3.42-2.37,5.355-2.928,9.613c-0.327,2.494-3.727-0.772-4.718-0.978
			c-4.264-0.891-10.531,0.589-14.152-1.63c-2.456-1.504-0.987-3.254-2.034-4.643c-9.562,0-15.059,3.762-21.715-3.992
			c-5.254-6.119-13.909-7.482-13.909-16.292c-1.795-1.801-4.271-0.47-5.693-3.665c-1.759-3.951,0.428-3.223-5.124-4.399
			c-3.44-2.297-2.237-5.834-3.09-9.286c-2.18-0.313-6.884,2.066-9.11,2.851c-3.119,1.098-0.842-4.216-1.138-5.376
			c-1.76-6.888-1.92-8.925,1.382-15.559c2.864-5.751-1.057-2.828-5.287-3.422c-5.461-0.768-5.385-8.831-7.238-13.278
			c-1.648-3.953-5.432-2.375-7.727-5.702c-2.129-3.087-4.042-6.98-5.392-10.659H1038.74l-697.399,585.982
			c0.075,0.245,0.15,0.456,0.219,0.613c1.659-0.042,5.258-1.396,6.832-0.652c2.399,1.134,1.575,4.003,5.206,1.385
			c5.864-4.227,5.609-2.498,9.841,1.955c1.808,1.901,3.507,5.413,4.88,7.739c1.84,3.117-1.553,6.757-3.254,9.123
			c-1.113,1.551-4.717,5.708-4.717,7.332c4.784,1.183,10.137-5.797,14.477-0.896c2.345,8.438,5.794,3.31,11.387,6.923
			c4.615,2.98,9.619,16.375,15.698,13.768c6.635-2.845,15.008-3.229,21.716-0.571c3.363,1.333,5.788,3.428,8.442,5.239
			l632.291-531.277H1584.286z"/>
		<path fill="#FFFFFF" d="M1837.18,682.763c1.116-3.301,2.192-6.61,3.111-9.945c4.248-4.755,7.787-19.493,8.377-25.986
			c0.175-1.931,1.361-3.875,1.464-5.703c0.114-2.017-1.504,0.108-2.928,0c-3.096-0.234-1.116-9.118,1.952-3.91
			c3.608,6.123,3.361-7.898,3.579-9.613c0.205-1.613,0.326-3.234,0.394-4.857l-55.539,0.54c-4.857,0.177-6.899-1.403-11.062-3.015
			c-2.29-0.887-4.598-2.498-7.157-1.547c-2.126,0.789-2.774,2.191-4.555,3.259c-2.331,1.397-3.617-0.489-5.286-2.037l-1.871-1.141
			c-0.502-0.864-1.043-3.258-2.195-3.258c-1.68,0-2.772,1.113-4.23,1.63c-0.873,0.308-2.275-0.047-3.09-0.407
			c-0.498-0.22-1.689-0.082-2.2-0.082l-2.766,61.259h-53.107c-6.092-0.956-11.169-3.538-16.836-5.783
			c-6.347-2.516-13.015-4.045-19.032-7.169c-3.21-1.665-5.767-6.049-8.459-7.168c-1.279-2.818-4.355-6.241-6.831-8.147
			c-5.333-5.342-9.188-8.259-7.971-16.211c1.049-6.851-0.533-6.242-4.473-11.404c-1.808-2.368-1.444-8.518-4.88-6.354
			c-2.659,1.676-5.126,7.242-7.401,2.688c-1.667-3.334-2.532-12.711-1.708-16.374c-0.663-4.458-0.837-17.057,0.618-25.929h-558.739
			l-105.621-88.747c-2.762,0.251-5.04,1.133-8.316,0.63c-2.643-0.406-4.205-2.101-6.181-3.584c-2.206-1.657-6.555-1.149-7.565-2.606
			c-2.559-3.699-8.34-3.445-12.444-3.096c-2.675,1.004-5.954,3.631-8.377,1.059c-1.14-1.211-2.218-4.079-3.741-4.48
			c-2.63-0.694-8.236-6.184-10.167-8.716c-3.069-4.024-5.195-2.344-9.271-1.141c-2.724,0.803-12.099,1.762-14.071-0.407
			c-2.735-3.006-4.275,0.184-6.588,0.57c-3.368,0.562-5.253-5.287-7.889-6.843c-9.11-5.382-13.026-14.491-23.424-18.491
			c-1.273-0.086-9.419-5.168-9.679-6.273c-1.043-4.442-5.807-1.985-8.296-5.295c-1.684-2.238-1.463-4.238-4.23-5.621
			c-2.974-1.487-2.907,4.96-7.238,2.281c-4.573-2.83-10.248-2.02-14.966-3.747c-7.562-2.769-10.677,5.919-15.615,4.399
			c-2.724-0.839-6.049,2.885-7.239,0.488c-1.953-3.931-5.935,2.744-7.157,4.725c-2.542,4.124-8.543,7.324-9.598,12.056
			c-0.206,0.926-0.35,1.602-0.47,2.115l282.525,237.388H1837.18z"/>
		<path d="M437.195,690.09l0.105,126.02c-1.438-0.17-4.419-0.029-6.019,0.245c-2.179,0.374-4.46,0.705-6.425,1.792
			c-3.846,2.127-7.553,12.212-12.363,6.598c-3.695-4.312-7.069,2.543-9.435,3.91c-2.877,1.663-2.773,0.489-4.961-0.734
			c-3.157-1.764-5.151-0.517-7.971,0.815c-5.971,2.82,0.512,6.403-6.669,9.939c-2.5,1.231-2.778,7.455-3.498,10.019
			c-3.046,10.847-19.175,3.032-22.285,7.82c-2.353,3.624-4.236,10.854-0.895,14.419c1.107,1.182,7.988,4.008,1.465,5.132
			c-4.433,0.764-5.43,3.332-8.784,5.866c-4.294,3.244-10.835,3.379-15.372,0.652c-4.466-2.685-7.895-10.021-11.874-11.242
			c-7.733-2.373-17.991-4.279-26.108-3.503c-4.626,0.442-9.218,1.195-13.826,1.792c-4.199,0.545-6.427,3.452-10.085,5.213
			c-6.956,3.351-13.711-0.977-20.902-0.977c-4.866,0-8.237,2.721-12.606,3.258c-3.329,0.409-11.192-4.354-14.721-5.702
			c-7.837-2.995-9.087-12.863-19.439-12.952c-2.197-0.019-9.07,1.033-10.492-0.734c-2.003-2.49-3.212,1.391-4.88,0.815
			c-1.308-0.452-3.036-2.096-4.635-1.222c-1.753,0.957-5.004,4.601-7.076,3.503c-3.728-1.975-1.967-6.397-3.009-9.613
			c-1.304-4.023-9.769,0.028-12.363,0.407c-9.301,1.364-8.98-0.669-8.296-9.368c0.104-1.329,1.503-8.717-0.162-8.717
			c-6.696,0-2.81-3.415-5.043-7.901c-3.359-6.751-3.729-3.716,2.278-8.961c6.241-5.45-1.564-10.122-1.79-15.641
			c-0.283-6.938-2.848-9.644-10.248-7.82c-19.233,4.742-2.86-21.428-14.966-19.633c-5.438,0.806-3.369-2.919-6.1-4.969
			c-3.875-2.91-5.776,2.497-8.865,3.584c-2.332,0.821-7.464-0.106-10.166,0.733c-5.58,1.733-1.527,10.878-3.823,12.138
			c-0.948,0.521-6.554-2.136-5.043,1.303c1.629,3.706,3.636,2.053-1.219,4.48c-2.94,1.469,2.451,3.129-0.651,5.458
			c-3.901,2.929-6.513-2.236-7.89,4.155c-0.668,3.102,10.464,5.604,5.125,9.857c-4.541,3.616-0.34,6.535-2.684,10.753
			c-1.059,1.907-2.396,5.906-5.125,5.295c-2.859-0.64-4.445-6.176-6.425-4.724c-4.425,3.246-5.957,10.811-11.305,11.73
			c-2.889,0.496-5.054,0.25-7.808,1.466c-2.65,1.17-2.462,4.347-3.63,6.402c0.361,0.172,0.726,0.347,1.094,0.522
			c3.098,1.485,7.11,7.252,9.19,10.264c2.433,3.524,1.716,4.813,2.359,8.961c0.242,1.563,4.038,12.875,4.799,13.278
			c6.113,3.24,10.196,6.571,11.712,13.767c0.265,2.661,4.456,6.122,6.67,7.413c5.654,3.295,3.781,8.871,5.368,14.256
			c1.226,4.158,3.251,6.891,5.205,10.59c2.762,5.232,2.96,10.21,6.344,15.478c3.953,6.157,7.023,13.128,7.482,20.61
			c0.705,5.98,3.977,11.573,4.962,17.514c1.34,8.092,2.273,15.779,5.043,23.542c3.341,9.368,9.779,18.056,10.33,28.675
			c-0.488,4.425,3.781,12.514,5.937,16.455c3.848,7.037,3.44,14.343,7.971,21.75c6.102,9.978,10.253,20.388,14.558,31.2
			c2.412,5.76,7.962,10.678,9.109,16.455c1.264,6.369,7.635,19.33,11.712,24.521c6.112,7.784,8.761,18.052,13.664,26.637
			c2.379,4.117,12.607,11.6,12.607,15.315c0,2.893,1.426,6.263,3.473,9.697l411.067-345.392L437.195,690.09z"/>
		<path fill="#FFB612" d="M437.089,561.807l0.106,128.283l181.696,152.667l-411.067,345.392c3.659,6.14,9.309,12.488,12.387,16.696
			c2.572,3.518,7.478,7.474,9.272,11.079c1.988,3.991,3.465,10.566,7.076,13.523c0.887,2.969,4.501,4.365,5.205,7.25
			c1.085,4.448,0.047,10.06,3.416,13.604c6.398,6.733,0.729,12.246,4.311,19.714c1.547,3.225,1.969,6.392,2.055,9.592
			l519.913-436.851L437.089,561.807z"/>
		<path fill="#007A4D" d="M1223.678,1002.751c-0.223-0.609-0.435-1.212-0.626-1.804c-1.409-6.719-3.819-14.094-6.67-20.284
			c-2.041-4.431-8.713-9.074-7.901-14.068c0.217-0.115,0.438-0.233,0.662-0.351c0.748-0.399,1.587-0.648,2.278-1.14
			c2.823-2.011,4.368,0.305,6.75-3.584c1.786-2.917,5.286-1.263,6.67-3.666c2.872-4.986,7.654-1.793,11.875-5.213
			c3.438-2.785,5.327,0.457,6.994-4.97c0.775-2.524,4.876-1.193,6.263-2.688c1.06-1.144-0.441-2.481,0.163-3.747
			c1.137-2.382,4.398-3.455,5.937-5.621c1.642-2.311-0.561-4.188,1.546-7.332c1.977-2.95,2.473-4.027,5.368-6.354
			c7.391-5.941,9.124-16.711,15.779-23.379c1.931-1.935,3.579-2.781,3.579-5.784c0-6.921,2.063-3.4,5.205-7.738
			c1.918-2.648,2.644-8.611,5.368-10.02c3.3-1.708,3.155-3.327,6.913-1.547c8.479,4.015,6.47-2.32,11.062-6.354
			c4.082-3.587,4.354,0.769,8.458,1.629c3.165,0.662,10.947-12.001,13.338-14.826c8.622-10.186,16.149-4.456,27.166-8.472
			c3.611-1.316,1.772-8.439,9.434-9.613c5.669-0.868,10.903-0.142,16.591-2.606c1.839-0.796,3.47-2.009,5.206-3.015v0l1.547,1.059
			c1.768,1.447,2.089,3.971,2.521,6.029c0.376,1.794-1.302,2.805-1.219,4.643c0.072,1.617,1.307,2.179,1.87,3.503
			c0.958,2.247,1.125,3.17,3.417,4.317c6.874,0.408,5.449,4.3,5.449,8.472c0,4.193,4.999-0.733,6.75-0.733
			c2.017,0,2.982,0.951,5.531,0.815c5.754-0.309-1.123,24.75,10.086,15.804c2.156-1.721,11.238,10.066,12.85,11.078l8.703,5.458
			c1.8,1.13,0.285,4.033,1.545,5.295c3.607,3.618,5.156,5.306,10.248,3.503c2.555-0.904,1.583,2.844,2.928,3.177
			c0.322,1.638-0.386,4.028-0.814,5.702c1.741,6.916,7.316,3.659,9.272,8.961c1.017,2.754,3.102,7.432,2.603,10.346
			c-1.681,9.788-2.616,16.657-13.258,20.203c-6.728,2.243-0.406,9.123-0.406,13.115c-6.19,3.894-2.296,1.657-3.823,8.31
			c-4.337-0.756-11.58-0.278-13.339,4.724c-0.99,2.813-2.752,7.34-3.091,10.101c-0.253,2.058,0.11,5.596-0.651,7.413
			c-1.651,3.945-4.552,4.486,1.057,7.006c3.45,1.55,4.073,2.94,3.218,4.248h205.462c2.987-5.19-0.37-9.385,1.567-15.083
			c2.387-7.018,7.157-13.837,10.329-20.61c4.493-3.679,7.467-11.357,10.492-16.374c9.628-15.969,24.368-27.798,35.868-42.197
			c7.301-5.848,11.831-14.327,18.138-21.18c8.373-9.101,22.846-7.933,31.719-16.21l28.467-26.557
			c3.191-1.648,7.737-8.062,9.678-11.16c3.503-5.588,6.263-10.385,6.263-17.27c0-2.324-0.716-3.279,0.243-5.539
			c1.55-3.644,3.745-8.032,5.938-11.241c6.524-3.842,7.58-24.172,9.435-31.526c1.166-4.62,3.76-10.246,2.684-15.071
			c-1.378-6.184,0.068-16.309,2.115-22.157c3.297-7.791,5.622-16.47,7.482-24.683c1.763-7.778,4.613-15.427,7.219-23.129h-798.44
			L756.216,445.375c-0.573,2.447-0.571,0.912-3.841,2.121c-2.936,1.085,0.303,5.029-1.383,7.413
			c-2.563,3.626-4.389,3.157-0.244,7.088c1.662,1.575-1.984,0.994-2.765,1.14c-2.745,1.572-3.895,2.206-1.138,3.992
			c0.896,0.579,2.653,1.927,2.602,3.015c-0.145,3.057-3.133,5.392-6.019,5.539c-2.306,0.117-0.683,3.576-1.138,4.724
			c-1.278,3.218-4.775,2.384-1.627,5.54c2.617,2.622,2.747,5.567-0.976,7.576c-7.203,3.886,1.497,4.448-1.383,9.041
			c-1.731,2.76-0.028,4.388-1.057,7.169c-1.971,5.327-4.157,0.398-6.182,2.606c-2.228,2.428,1.195,7.234-2.602,10.427
			c-4.311,3.623-4.814,4.672-7.239,9.532c0,11.182-7.045,3.094-10.492,3.258c-7.357,0.35-5.455,7.305-10.329,8.798
			c-2.803,0.859-0.702,5.035-6.181,5.295c-2.139,0.102-2.028,2.402-3.579,3.177c-1.747,0.873-3.368-0.982-5.206,1.222
			c-1.975,2.372-4.223,2.768-5.774,4.643c-1.437,1.738-0.895,5.405-1.789,7.657c-1.229,3.094-3.112,5.889-5.45,8.227
			c-6.239,6.239-8.302,15.162-17.812,16.7c-4.874,4.882-12.037,0.351-16.998,1.303c-5.503,1.055-2.424,6.89-2.603,10.834
			c-0.462,10.171-14.248,16.873-22.367,11.242c-2.197-1.524-5.211,0.897-7.157,1.303c-3.683,0.768-5.783-3.015-9.109-3.503
			c-3.501-0.513-10.582-0.291-13.583,1.711c-4.676,3.116-7.717-0.881-13.258,1.304c-4.964,3.607-6.565,2.061-11.549,0.326
			c-3.092-1.078-8.617-0.182-10.736-2.443c-5.462-5.827-15.722-4.967-21.96-0.815l-11.658,7.76c-0.932,0.62-1.137,1.219-1.219-0.039
			c-0.235-3.608-1.967-6.438-3.552-9.676c-2.311-4.717-0.716-9.158-3.335-12.952c-2.287-3.312,1.986-5.701,1.302-8.554
			c-1.042-4.343,1.358-6.839-1.627-11.323c-1.69-2.539-0.869-4.088-1.708-6.762c2.548-6.06,2.902-6.72,7.89-9.856
			c4.435-2.789,3.377-7.381,7.157-11.16c1.95-1.95,3.232-5.209,5.043-7.495c3.229-4.075,1.517-8.039,4.23-11.404
			c1.523-1.888,3.189-2.55,2.603-5.214c-0.8-3.633-4.1-2.242-2.766-6.924c0.857-3.004-0.283-6.087,0.325-9.45
			c0.663-3.149,2.163-8.032-1.789-9.612c-3.614-1.443-0.162-3.879-0.162-6.192c0-1.677-2.49-1.841-3.498-2.851
			c-2.188-2.194-0.656-3.696-0.976-6.192c-0.384-2.993-5.449-1.752-5.449-6.761c0-4.437-5.368-5.563-5.368-10.101
			c0-5.312,6.142-8.97-0.407-13.278c-5.874-5.874-0.611-4.989-0.895-11.241c-0.172-3.809-7.923-2.455-8.947-9.123
			c-0.637-4.153-2.095-4.953-4.311-8.228c-2.182-3.224-3.209-8.274-5.53-10.997c-1.531-1.795-3.427-1.215-4.148-4.073
			c-0.592-2.344,1.436-4.563-1.139-6.11c-3.317-1.99-1.496-3.633-3.985-5.539c-1.51-3.036-3.131-3.826-4.066-7.251
			c-0.49-1.793-2.72-4.283-4.229-5.376c-1.559-1.127-3.122-1.32-4.149-3.177c-1.068-1.932-1.983-3.671-3.253-5.458
			c-2.221-3.128-6.555-0.514-9.109-0.978c-1.948-0.355-2.237-2.55-4.148-3.095c-5.745-1.639-4.783-6.011-9.837-8.716l-5.659-4.659
			l0.167,201.327l334.369,280.95l-519.913,436.851c0.123,4.55-0.438,9.166,0.548,14.113c0,5.838,4.337,11.677,3.416,18.085
			c-4.097,1.553-2.922-0.209-2.521,5.133l1.301,17.351c0.462,6.16-2.393,11.811-4.23,17.596c-0.093,0.977-6.476,9.024-7.89,9.938
			c-1.378,0.892-3.687,1.989-4.392,3.502c-3.851,8.255-9.868,10.371-16.836,3.584l-5.856-5.703
			c-1.132-1.103-8.154,2.604-8.866,3.911c-0.595,1.089,3.802,6.773-0.57,8.554c-1.402,0.571-4.469,1.214-5.043,2.932
			c-0.94,2.813,6.607,2.532,2.766,7.658c-1.453,1.939-0.143,3.014,0.813,4.643c0.989,1.686,0.081,5.041,0.081,6.924
			c0.149,2.838,1.843,2.825,3.498,4.48c1.726,1.726,1.705,5.031,2.114,7.413c0.379,2.203,2.771,2.931,3.254,4.888
			c2.113,0-1.139-6.076-1.301-6.924c-1.837-9.576,5.605-8.243,9.028-1.629c2.013,3.891,1.601,9.266,4.879,12.545
			c1.344,1.344,4.149,5.151,4.149,7.088c0,3.7-6.827-5.718-7.401-6.436c-1.531-1.917-12-6.964-8.215-2.28
			c6.239,7.722,13.003,9.887,17.405,19.795c1.311,2.95,4.579,6.078,2.928,9.45c-1.576,3.217,6.715,7.38,9.598,9.694
			c1.03,2.805,5.206,5.571,6.913,8.472c2.057,3.497,3.181,7.222,4.88,10.916c3.361,7.308,8.922,10.427,9.841,18.981
			c0.776,7.225,4.962,12.444,4.962,20.283c-1.562,7.825-0.058,4.667-7.157,6.029c-3.015,0.578-5.062,11.149-8.703,14.418
			c-1.474,1.322-2.864,4.75,0.162,4.887c6.649,0.301-0.455,5.536-1.871,8.228c-1.1,2.093,3.147,7.181,4.393,8.88
			c2.993,4.078,1.59,10.109,3.985,14.663c1.469,2.794,5.397,6.799,8.541,7.576c0-3.803,0.003-11.336-0.976-15.152
			c-0.854-3.331-2.061-4.725-4.311-7.168c-2.267-2.46,2.524-7.015,3.823-8.961c7.301-4.487,18.186-7.317,26.758-5.865
			c3.892,0.659,8.292,1.994,10.736,5.295c2.82,3.81,0.8,6.528,1.79,10.509c0.121,4.364,6.64,5.51,2.196,9.368
			c-1.764,1.532-2.576,5.056-0.651,6.924c1.934,1.875-2.09,11.162,2.034,10.183c4.781-1.135,9.826-3.695,14.639-5.296
			c2.406-0.8,7.074-1.84,9.354-0.488c2.666,1.579,2.3,2.153,4.717-0.407c3.04-3.22,3.328,1.115,0.895,3.34
			c-1.078,0.985-0.406,5.282,0.188,7.208l697.399-585.982H1223.678z"/>
	</g>
	<path fill="none" stroke="#000000" stroke-width="2" stroke-miterlimit="10" d="M1797.592,623.29c-4.86,0.18-6.9-1.4-11.06-3.01
		c-2.29-0.89-4.6-2.5-7.16-1.55c-2.13,0.79-2.77,2.19-4.55,3.26c-2.33,1.4-3.62-0.49-5.29-2.04l-1.87-1.14
		c-0.5-0.86-1.04-3.26-2.2-3.26c-1.68,0-2.77,1.12-4.229,1.63c-0.87,0.31-2.271-0.04-3.09-0.4c-0.49-0.22-1.69-0.09-2.2-0.09
		l-2.76,61.26h-53.11c-6.09-0.95-11.17-3.53-16.83-5.78c-6.35-2.52-13.02-4.04-19.04-7.17c-3.21-1.66-5.76-6.05-8.46-7.17
		c-1.27-2.81-4.35-6.24-6.83-8.14c-5.33-5.35-9.19-8.26-7.97-16.21c1.05-6.86-0.53-6.25-4.47-11.41c-1.81-2.37-1.45-8.52-4.88-6.35
		c-2.66,1.67-5.13,7.24-7.4,2.69c-1.67-3.34-2.53-12.72-1.71-16.38c-0.66-4.46-0.84-17.05,0.62-25.93c0.62-3.82,1.55-6.96,2.88-8.44
		c8.12-9.13,15.11-21.12,21.06-31.86c3.62-6.82,9.38-15.47,10.98-23.05c1.29-6.06,5.63-9.04,9.76-13.2
		c2.56-2.57,8.64-7.56,10.01-10.59c2.26-5.02,8.41-5.43,13.17-6.35l49.61,33.89l11.47-6.27c-2.43-5.38-5.38-12.33-3.25-18.25
		c2.26-6.31,5.3-12.66,6.1-19.39c0.54-4.6-1.93-10.97-0.9-14.75l3.25-49.2l-1.95-73.48c-0.51-8.73-0.28-16.21-3.41-24.27
		c-2.78-7.15-8.46-14.03-8.46-22.49c-0.82-13.09-1-19.71-11.23-28.02c-10.27-8.34-5.37-20.15-10.73-29.98
		c-4.09-7.48-11.36-11.36-13.18-20.52c-1.66-8.36,1.2-26.66,3.41-35.13l-24.71-98.57c-3.64-1.79-6.72-3.83-7.73-5.69
		c-1.28-2.33-2.34-2.03-5.7-2.03c-2.54,0-2.27-2.21-4.31-2.28c-6.99-0.27-8.91,2.86-15.61-0.33c-7.67-3.65-18.15-5.29-26.35-3.18
		c-3.14,0.81-5.63,0.03-8.54,0.49c-3.3,0.53-6.46,3.8-9.93,2.2c-5.34-2.46-7.74,2.47-12.52,0c-3.85-1.99-4.31,0.61-7.65,2.28
		c-3.31,1.66-7.07-0.2-10.57,0.25c-10.1,1.29-6.1-5.21-13.34-6.68c-4.42-0.9-8.89,4.5-12.52,0.16c-3.49-4.16-15.33-10.24-27.2-14.31
		c-6.84-2.34-13.69-4.01-18.96-4.27h-2.51c-2.17,0.12-3.96,0.55-5.18,1.39c-3.37,2.33-11.46,1.73-15.69,1.55
		c-3.6-0.15-8.41,2.56-12.36,3.82c-1.67,0.53-3.19,0.81-4.4,0.5c-3.12-0.81-6.86-1.42-10.26-1.32c-0.95,0.02-1.87,0.11-2.75,0.26
		c-4.14,0.71-6.25,4.4-10.98,4.4c-4.54,0-8.28-1.34-10.09,4.31c-0.9,2.85-2.81,2.83-3.82,4.97c-1.79,3.79,1.18,16.22-5.77,17.84
		c-3.31,0.78-8.21-3.46-10.01,1.96c-1.41,4.23-7.9,4.14-11.95,5.54c-3.93,1.36-8.43,6.3-12.21,5.46c-5.72-1.28-6.83,3.75-11.3,3.58
		c-1.32-0.05-5.47-2.33-7.24-2.85c-3.01-0.89-8.94,0.2-11.55,1.87c-4.23,2.71-7.19,7.12-10.9,9.45c-0.85,0.54-2.42-0.18-3.09,0.49
		c-1.96,1.97-3.41,4.31-5.53,6.44c-0.84,0.84,0.31,2.78-0.4,4.07c-1.22,2.19-6.66,6.55-8.79,7.82c-3.1,1.86-6.24,2.51-3.82,6.68
		c1.16,2,0.87,3.75-1.3,5.05c-2.53,1.52-11.06,5.1-10.58,8.39c1.99,13.54-14.78,11.28-18.13,21.91c-4.4,13.95-7.98,0.13-12.61,6.2
		c-2.74,3.58-6.25-1.85-7.89,3.74c-1,3.42-1.21,8.34-3.33,11.16c-1.87,2.49-2.89,7.27-7,5.22c-2.8-1.4-5.7,0.14-6.1,3.09
		c-0.64,4.8-10.35-1.57-11.39-0.65c-3.53,3.15-3.5,6.02-8.37,8.07c-3.4,1.42-8.97,7.74-11.39,6.68c-3.35-1.48-3.03,4.51-3.82,5.94
		c-2.1,3.8-6.63-0.11-5.45,7.01c0.9,5.43-3.7,4.59-6.02,1.22c-2.05-2.98-6.02,7.62-6.02,8.23v6.51c0,3.22-2.02,5.09-2.44,7.99
		c-0.42,2.91,2.05,4.1,1.22,7.33c-0.78,3.04-1.98,4.51-3.33,7.09c-1.08,2.04,0.08,4.13-1.06,5.78c-2.44,3.53-2.66,7.1-5.04,11
		c-1.89,3.07,0.25,5.81,0.81,9.04c0.43,2.51-2.12,10.36-3.74,12.3c-4.41,5.27-13.02,3.67-16.59,8.64c-1.4,1.93-6.77,6.3-8.63,7.57
		c-3.62,2.48-9.65,5.8-11.95,9.12c-2.02,2.93-1.07,8.25-1.95,11.74c-0.94,3.73-3.91,4.06-5.71,6.67l-17.23,4.08
		c-8.18,3.76-17.6,2.49-25.05,6.43c-7.86,4.16-13.61,1.42-21.23,3.42c-2.41,0.64,2.44,6.47,1.14,8.48c-2.1,3.24,2.64,5.4,1.71,10.1
		c-1.49,7.52-7.06,17.26-10.09,24.68c-1.91,4.69-3.15,11.72-6.01,15.64c-6.15,12.3-6.75,25.61-12.12,38.21
		c-6.49,15.21-14.17,17.05-27.9,25.17c-9.03,5.34-18.98,0.64-28.71,1.3c-2.18,0-4.16-2.86-7.4-3.34c-2.26-0.33-4.53,0.09-6.27,1.63
		c-3.12,2.79-8.99,7.82-12.93,7.82c-4.58,0-6.4,2.69-11.38,1.22c-2.15-0.63-3.87-0.69-5.43-0.54c-2.77,0.25-5.04,1.13-8.32,0.63
		c-2.64-0.41-4.2-2.11-6.18-3.59c-2.21-1.66-6.56-1.15-7.56-2.61c-2.56-3.69-8.34-3.44-12.45-3.09c-2.67,1-5.95,3.63-8.38,1.06
		c-1.14-1.21-2.21-4.08-3.74-4.48c-2.63-0.7-8.23-6.19-10.16-8.72c-3.07-4.02-5.2-2.34-9.28-1.14c-2.72,0.8-12.09,1.76-14.07-0.41
		c-2.73-3-4.27,0.19-6.58,0.57c-3.37,0.57-5.26-5.28-7.89-6.84c-9.11-5.38-13.03-14.49-23.43-18.49c-1.27-0.09-9.42-5.17-9.68-6.27
		c-1.04-4.44-5.8-1.99-8.29-5.3c-1.69-2.24-1.47-4.24-4.23-5.62c-2.98-1.49-2.91,4.96-7.24,2.28c-4.57-2.83-10.25-2.02-14.97-3.75
		c-7.56-2.76-10.67,5.92-15.61,4.4c-2.73-0.84-6.05,2.89-7.24,0.49c-1.95-3.93-5.94,2.75-7.16,4.73c-2.54,4.12-8.54,7.32-9.6,12.05
		c-0.2,0.93-0.35,1.61-0.47,2.12c-0.57,2.45-0.57,0.91-3.84,2.12c-2.93,1.08,0.31,5.03-1.38,7.41c-2.56,3.63-4.39,3.16-0.24,7.09
		c1.66,1.57-1.99,0.99-2.77,1.14c-2.74,1.57-3.89,2.21-1.14,3.99c0.9,0.58,2.66,1.93,2.61,3.02c-0.15,3.05-3.14,5.39-6.02,5.54
		c-2.31,0.11-0.69,3.57-1.14,4.72c-1.28,3.22-4.78,2.38-1.63,5.54c2.62,2.62,2.75,5.57-0.97,7.58c-7.21,3.88,1.49,4.44-1.39,9.04
		c-1.73,2.76-0.02,4.39-1.05,7.17c-1.97,5.32-4.16,0.39-6.19,2.6c-2.22,2.43,1.2,7.24-2.6,10.43c-4.31,3.62-4.81,4.67-7.24,9.53
		c0,11.18-7.04,3.1-10.49,3.26c-7.36,0.35-5.45,7.3-10.33,8.8c-2.8,0.86-0.7,5.03-6.18,5.29c-2.14,0.1-2.03,2.4-3.58,3.18
		c-1.74,0.87-3.37-0.98-5.2,1.22c-1.98,2.37-4.23,2.77-5.78,4.64c-1.43,1.74-0.89,5.41-1.79,7.66c-1.23,3.1-3.11,5.89-5.45,8.23
		c-6.24,6.24-8.3,15.16-17.81,16.7c-4.87,4.88-12.04,0.35-17,1.3c-5.5,1.06-2.42,6.89-2.6,10.84
		c-0.46,10.17-14.25,16.87-22.37,11.24c-2.19-1.53-5.21,0.9-7.15,1.3c-3.69,0.77-5.79-3.01-9.11-3.5
		c-3.5-0.51-10.58-0.29-13.59,1.71c-4.67,3.12-7.71-0.88-13.25,1.3c-4.97,3.61-6.57,2.06-11.55,0.33c-3.1-1.08-8.62-0.18-10.74-2.44
		c-5.46-5.83-15.72-4.97-21.96-0.82l-11.66,7.76c-0.93,0.62-1.13,1.22-1.22-0.04c-0.23-3.61-1.96-6.44-3.55-9.67
		c-2.31-4.72-0.71-9.16-3.33-12.96c-2.29-3.31,1.98-5.7,1.3-8.55c-1.04-4.34,1.36-6.84-1.63-11.32c-1.69-2.54-0.87-4.09-1.71-6.77
		c2.55-6.05,2.91-6.72,7.89-9.85c4.44-2.79,3.38-7.38,7.16-11.16c1.95-1.95,3.23-5.21,5.04-7.5c3.23-4.07,1.52-8.04,4.23-11.4
		c1.53-1.89,3.19-2.55,2.61-5.21c-0.8-3.64-4.1-2.25-2.77-6.93c0.86-3-0.28-6.09,0.32-9.45c0.67-3.15,2.17-8.03-1.78-9.61
		c-3.62-1.44-0.17-3.88-0.17-6.19c0-1.68-2.49-1.84-3.49-2.85c-2.19-2.2-0.66-3.7-0.98-6.19c-0.38-3-5.45-1.76-5.45-6.77
		c0-4.43-5.37-5.56-5.37-10.1c0-5.31,6.14-8.97-0.4-13.28c-5.88-5.87-0.62-4.98-0.9-11.24c-0.17-3.81-7.92-2.45-8.95-9.12
		c-0.63-4.15-2.09-4.95-4.31-8.23c-2.18-3.22-3.21-8.27-5.53-11c-1.53-1.79-3.42-1.21-4.14-4.07c-0.6-2.34,1.43-4.56-1.14-6.11
		c-3.32-1.99-1.5-3.63-3.99-5.54c-1.51-3.03-3.13-3.82-4.07-7.25c-0.49-1.79-2.72-4.28-4.22-5.37c-1.56-1.13-3.13-1.32-4.15-3.18
		c-1.07-1.93-1.99-3.67-3.26-5.46c-2.22-3.13-6.55-0.51-9.11-0.98c-1.94-0.35-2.23-2.55-4.14-3.09c-5.75-1.64-4.79-6.01-9.84-8.72
		l-5.66-4.66l0.17,201.33l0.1,128.28l0.11,126.02c-1.44-0.17-4.42-0.03-6.02,0.25c-2.18,0.37-4.46,0.7-6.43,1.79
		c-3.84,2.13-7.55,12.21-12.36,6.6c-3.69-4.31-7.07,2.54-9.43,3.91c-2.88,1.66-2.78,0.49-4.96-0.73c-3.16-1.77-5.15-0.52-7.97,0.81
		c-5.98,2.82,0.51,6.4-6.67,9.94c-2.5,1.23-2.78,7.45-3.5,10.02c-3.05,10.84-19.18,3.03-22.29,7.82
		c-2.35,3.62-4.23,10.85-0.89,14.42c1.11,1.18,7.99,4.01,1.46,5.13c-4.43,0.76-5.43,3.33-8.78,5.86
		c-4.29,3.25-10.84,3.38-15.37,0.66c-4.47-2.69-7.9-10.02-11.88-11.25c-7.73-2.37-17.99-4.27-26.1-3.5
		c-4.63,0.44-9.22,1.2-13.83,1.79c-4.2,0.55-6.43,3.46-10.09,5.22c-6.95,3.35-13.71-0.98-20.9-0.98c-4.87,0-8.24,2.72-12.61,3.26
		c-3.32,0.41-11.19-4.36-14.72-5.7c-7.83-3-9.08-12.87-19.44-12.96c-2.19-0.01-9.07,1.04-10.49-0.73c-2-2.49-3.21,1.39-4.88,0.82
		c-1.3-0.46-3.03-2.1-4.63-1.23c-1.75,0.96-5.01,4.6-7.08,3.51c-3.73-1.98-1.97-6.4-3.01-9.62c-1.3-4.02-9.77,0.03-12.36,0.41
		c-9.3,1.36-8.98-0.67-8.3-9.37c0.11-1.33,1.51-8.71-0.16-8.71c-6.7,0-2.81-3.42-5.04-7.9c-3.36-6.76-3.73-3.72,2.28-8.97
		c6.24-5.45-1.57-10.12-1.79-15.64c-0.29-6.93-2.85-9.64-10.25-7.82c-19.23,4.75-2.86-21.43-14.97-19.63
		c-5.44,0.81-3.37-2.92-6.1-4.97c-3.87-2.91-5.77,2.5-8.86,3.59c-2.33,0.82-7.47-0.11-10.17,0.73c-5.58,1.73-1.53,10.88-3.82,12.14
		c-0.95,0.52-6.56-2.14-5.04,1.3c1.62,3.71,3.63,2.05-1.22,4.48c-2.94,1.47,2.45,3.13-0.65,5.46c-3.9,2.93-6.52-2.24-7.89,4.15
		c-0.67,3.1,10.46,5.61,5.12,9.86c-4.54,3.62-0.34,6.53-2.68,10.75c-1.06,1.91-2.4,5.91-5.13,5.3c-2.86-0.64-4.44-6.18-6.42-4.73
		c-4.43,3.25-5.96,10.81-11.31,11.73c-2.89,0.5-5.05,0.25-7.81,1.47c-2.65,1.17-2.46,4.35-3.63,6.4c0.37,0.17,0.73,0.35,1.1,0.52
		c3.1,1.49,7.11,7.26,9.19,10.27c2.43,3.52,1.71,4.81,2.36,8.96c0.24,1.56,4.04,12.87,4.8,13.28c6.11,3.24,10.19,6.57,11.71,13.76
		c0.26,2.67,4.45,6.13,6.67,7.42c5.65,3.29,3.78,8.87,5.37,14.25c1.22,4.16,3.25,6.89,5.2,10.59c2.76,5.23,2.96,10.21,6.34,15.48
		c3.96,6.16,7.03,13.13,7.49,20.61c0.7,5.98,3.97,11.57,4.96,17.52c1.34,8.09,2.27,15.77,5.04,23.54
		c3.34,9.36,9.78,18.05,10.33,28.67c-0.49,4.43,3.78,12.52,5.94,16.46c3.85,7.03,3.44,14.34,7.97,21.75
		c6.1,9.98,10.25,20.39,14.56,31.2c2.41,5.76,7.96,10.68,9.11,16.45c1.26,6.37,7.63,19.33,11.71,24.52
		c6.11,7.79,8.76,18.06,13.66,26.64c2.38,4.12,12.61,11.6,12.61,15.32c0,2.89,1.43,6.26,3.47,9.69c3.66,6.14,9.31,12.49,12.39,16.7
		c2.57,3.52,7.48,7.47,9.27,11.08c1.99,3.99,3.47,10.56,7.08,13.52c0.89,2.97,4.5,4.37,5.2,7.25c1.09,4.45,0.05,10.06,3.42,13.6
		c6.4,6.74,0.73,12.25,4.31,19.72c1.55,3.22,1.97,6.39,2.05,9.59c0.13,4.55-0.43,9.17,0.55,14.11c0,5.84,4.34,11.68,3.42,18.09
		c-4.1,1.55-2.92-0.21-2.52,5.13l1.3,17.35c0.46,6.16-2.39,11.81-4.23,17.6c-0.09,0.98-6.48,9.02-7.89,9.94
		c-1.38,0.89-3.69,1.99-4.39,3.5c-3.85,8.25-9.87,10.37-16.84,3.58l-5.85-5.7c-1.14-1.1-8.16,2.6-8.87,3.91
		c-0.59,1.09,3.8,6.77-0.57,8.56c-1.4,0.57-4.47,1.21-5.04,2.93c-0.94,2.81,6.61,2.53,2.76,7.66c-1.45,1.93-0.14,3.01,0.82,4.64
		c0.99,1.68,0.08,5.04,0.08,6.92c0.15,2.84,1.84,2.83,3.5,4.48c1.72,1.73,1.7,5.03,2.11,7.42c0.38,2.2,2.77,2.93,3.25,4.88
		c2.12,0-1.14-6.07-1.3-6.92c-1.83-9.58,5.61-8.24,9.03-1.63c2.01,3.89,1.6,9.27,4.88,12.54c1.34,1.35,4.15,5.16,4.15,7.09
		c0,3.7-6.83-5.72-7.4-6.43c-1.53-1.92-12-6.97-8.22-2.28c6.24,7.72,13.01,9.88,17.41,19.79c1.31,2.95,4.58,6.08,2.93,9.45
		c-1.58,3.22,6.71,7.38,9.59,9.7c1.03,2.8,5.21,5.57,6.92,8.47c2.05,3.49,3.18,7.22,4.88,10.91c3.36,7.31,8.92,10.43,9.84,18.98
		c0.77,7.23,4.96,12.45,4.96,20.29c-1.56,7.82-0.06,4.66-7.16,6.03c-3.01,0.57-5.06,11.15-8.7,14.41c-1.47,1.33-2.86,4.75,0.16,4.89
		c6.65,0.3-0.45,5.54-1.87,8.23c-1.1,2.09,3.15,7.18,4.39,8.88c3,4.08,1.59,10.11,3.99,14.66c1.47,2.8,5.4,6.8,8.54,7.58
		c0-3.81,0-11.34-0.98-15.15c-0.85-3.34-2.06-4.73-4.31-7.17c-2.27-2.46,2.53-7.02,3.83-8.96c7.3-4.49,18.18-7.32,26.75-5.87
		c3.89,0.66,8.29,2,10.74,5.3c2.82,3.81,0.8,6.52,1.79,10.5c0.12,4.37,6.64,5.51,2.19,9.37c-1.76,1.53-2.57,5.06-0.65,6.93
		c1.94,1.87-2.09,11.16,2.04,10.18c4.78-1.14,9.82-3.69,14.64-5.3c2.4-0.8,7.07-1.84,9.35-0.48c2.67,1.58,2.3,2.15,4.72-0.41
		c3.04-3.22,3.33,1.11,0.89,3.34c-1.08,0.98-0.4,5.28,0.19,7.21c0.08,0.24,0.15,0.45,0.22,0.61c1.66-0.04,5.26-1.4,6.83-0.65
		c2.4,1.13,1.58,4,5.21,1.38c5.86-4.22,5.61-2.5,9.84,1.96c1.81,1.9,3.5,5.41,4.88,7.74c1.84,3.11-1.55,6.75-3.26,9.12
		c-1.11,1.55-4.71,5.71-4.71,7.33c4.78,1.18,10.13-5.8,14.47-0.89c2.35,8.43,5.8,3.31,11.39,6.92c4.62,2.98,9.62,16.37,15.7,13.77
		c6.63-2.85,15.01-3.23,21.71-0.57c3.37,1.33,5.79,3.42,8.45,5.24c0.93,0.63,1.9,1.24,2.94,1.76c0.28,0.14,0.58,0.22,0.89,0.27h1.1
		c2.2-0.28,4.78-1.99,6.39-2.79c2.49-1.25,1.32-9.67,7.56-13.04c5.31-2.85,7.22-1.55,12.37-2.28c1.27-5.06,1.46-6.81,6.26-10.02
		c8.72,1.25,11.99-8.59,16.43-13.85c8.81-10.45,24.79-9.32,36.84-7.25c2.01,0.35,7.74,2.3,9.44,0.74c4.64-4.29-3.34-4.4-3.34-7.82
		c11.29-6.43,15.37-5.82,28.22-3.59c4.77,1.02,8.77,0.88,13.18,3.42c17.17,9.91,19.69-6.02,35.05-6.02c7.09,0,14.05,6.21,19.93,4.64
		l19.85-5.3c0.51-3.64,5.04-5.72,5.04-7.82c-7.25-3.62,0.09-8.04,4.72-10.51c3.3,0.62,10.94-1.39,14.64-1.87
		c12.68-1.64-4.9-5.68,1.62-12.22c13.53-13.55,28.03-0.82,40.67-9.77c6.22-4.41,11.02-4,18.22-4.81c4.37-0.49,5.28-0.34,8.54,2.12
		c3.38,2.55,7.41,2.36,11.14,3.99c6.3,1.98,11.07,5.41,17.9,3.26c6.48-2.05,14.53,2.93,22.12,2.93c5.66,0,7.95,5.05,13.17,5.05
		c3.93,0,8.51-0.92,5.94-5.54c-2.98-5.34,6.89-13.19,12.04-13.19c9.38,0,15.99-2.21,25.7,1.38c11.88,6.1,33.35,7.08,46.77,8.96
		c6.57,0.92,12.59,5.15,18.46,5.78c6.44,0.7,12.03-2.72,14.72,5.38c3.16,2.54,7.66,3.26,11.71,3.26c7.55-0.52,13.91,3.12,20.99,1.95
		c3.42-0.56,9.3,2.67,12.12,1.06v-0.4c-1.85-1.31-4.26-7.02-1.88-8.72c0.64-3.5,8.91-3.78,9.11-8.88
		c0.49-12.36,12.91-14.17,23.43-14.17c10.36,0,22.19,8.32,32.77,9.69c7.41-1.79,20.7,5.29,28.07,0.73
		c3.17-1.96-6.27-10.69-7.49-13.27c-5.15-10.91,16.63-23.48,23.75-26.32c17.94-7.14,32.36-3.16,48.8,4.4
		c10.28-2.35,16.74,4.37,26.76-1.46l18.87-11c4.86-2.84,8.21-4.43,13.91-5.05c7.64-0.84,10.04-8.07,18.05-8.96
		c8.44-0.94,16.33-7.15,21.48-13.44c4.98-1.18,14.42-9.16,18.54-12.39l26.27-20.61c7.96-6.24,15.08-13.03,24.07-17.92l22.45-18
		c3.55-2.84,9.94-6.2,12.04-10.18c1.68-3.19,0.88-7.68,5.21-9.29c7.06-2.63,10.21-2.19,15.77-8.39
		c5.48-6.11,15.59-13.44,22.53-17.68l28.23-31.36c10.39-11.54,22.49-22.25,32.37-34.13c3.83-5.87,6.35-14.04,12.69-17.03
		c5.62-2.65,8.62-10.06,11.71-15.15c2.09-3.44,6.35-4.45,6.83-8.31c0.94-7.57,8.04-9.76,13.58-13.03c6.76-4,12.48-10.14,17.65-15.97
		c6.51-2.54,8.22-10.62,14.72-13.52c4.7-2.1,8.98-0.51,12.69-5.14l33.75-42.11c3.99-1.64,7.49-11.41,10.33-15.07
		c4.94-6.34,8.09-15.45,12.53-22.32l3.28-5.09l11.6-17.97c4.94-0.96,14.18-23.24,16.51-28.34c4.87-10.66,11.94-20.33,15.7-31.61
		c3.92-4.49,5.46-10.51,9.84-15.4l10.01-11.16c0.67-0.75,1.19-1.48,1.6-2.19c2.99-5.19-0.37-9.38,1.57-15.08
		c2.39-7.02,7.16-13.84,10.33-20.61c4.49-3.68,7.46-11.35,10.49-16.37c9.63-15.97,24.37-27.8,35.87-42.2
		c7.3-5.85,11.83-14.33,18.14-21.18c8.37-9.1,22.84-7.93,31.72-16.21l28.46-26.56c3.19-1.65,7.74-8.06,9.68-11.16
		c3.5-5.59,6.26-10.38,6.26-17.27c0-2.32-0.71-3.28,0.25-5.54c1.55-3.64,3.74-8.03,5.93-11.24c6.53-3.84,7.58-24.17,9.44-31.52
		c1.17-4.62,3.76-10.25,2.68-15.07c-1.38-6.19,0.07-16.31,2.12-22.16c3.29-7.79,5.62-16.47,7.479-24.68
		c1.76-7.78,4.61-15.43,7.22-23.13c1.12-3.3,2.19-6.61,3.11-9.95c4.25-4.75,7.79-19.49,8.38-25.98c0.17-1.93,1.36-3.88,1.46-5.71
		c0.12-2.01-1.5,0.11-2.93,0c-3.09-0.23-1.11-9.11,1.95-3.91c3.61,6.13,3.37-7.89,3.58-9.61c0.21-1.61,0.33-3.23,0.4-4.86
		L1797.592,623.29z M1474.372,927.63c-1.68,9.79-2.62,16.66-13.26,20.21c-6.72,2.24-0.4,9.12-0.4,13.11
		c-6.19,3.9-2.3,1.66-3.83,8.31c-4.33-0.75-11.58-0.28-13.33,4.73c-0.99,2.81-2.76,7.34-3.09,10.1c-0.26,2.06,0.11,5.59-0.66,7.41
		c-1.65,3.95-4.55,4.49,1.06,7.01c3.45,1.55,4.07,2.94,3.22,4.24c-0.72,1.1-2.48,2.14-4.52,3.17c-0.33,2.67-5.97,3.98-8.38,5.54
		c-5.26,3.42-9.12,7.83-15.12,10.26c-7.02,3.16-9.09,6.66-17,6.93c-5.61,0.19-7.89,5.1-13.75,3.5c-2.96-0.81-6.37-3.34-9.6-2.69
		c-5.01,1.02-7.32,5.75-13.09,4.56c-3.29-0.67-7.97,3.41-8.78,7.17c-0.54,2.48,0.59,3.91-2.04,5.46c-2.1,1.24-9.05,2.5-10.98,0.57
		c-0.3,0-0.45,0.03-0.73,0.08c-2.02,4.06,1.33,9.15,4.88,11.98c0,4.75,1.03,8.88-5.12,8.88c-7.23,2.42-5.87,5.8-3.99,11.48
		c-1.65,3.32-1.46,7.1-4.31,9.53c-3.99,3.42-2.37,5.36-2.93,9.62c-0.33,2.49-3.73-0.78-4.72-0.98c-4.26-0.89-10.53,0.59-14.15-1.63
		c-2.45-1.5-0.98-3.25-2.03-4.64c-9.56,0-15.06,3.76-21.72-4c-5.25-6.11-13.91-7.48-13.91-16.29c-1.79-1.8-4.27-0.47-5.69-3.66
		c-1.76-3.95,0.43-3.23-5.12-4.4c-3.44-2.3-2.24-5.84-3.09-9.29c-2.18-0.31-6.89,2.07-9.11,2.85c-3.12,1.1-0.85-4.21-1.14-5.37
		c-1.76-6.89-1.92-8.93,1.38-15.56c2.87-5.76-1.06-2.83-5.29-3.43c-5.46-0.76-5.38-8.83-7.23-13.27c-1.65-3.96-5.44-2.38-7.73-5.71
		c-2.13-3.08-4.04-6.98-5.39-10.66c-0.23-0.6-0.44-1.21-0.63-1.8c-1.41-6.72-3.82-14.09-6.67-20.28c-2.04-4.43-8.71-9.08-7.9-14.07
		c0.22-0.12,0.44-0.23,0.66-0.35c0.75-0.4,1.59-0.65,2.28-1.14c2.82-2.01,4.37,0.3,6.75-3.59c1.79-2.91,5.29-1.26,6.67-3.66
		c2.87-4.99,7.65-1.8,11.88-5.22c3.43-2.78,5.32,0.46,6.99-4.97c0.77-2.52,4.88-1.19,6.26-2.68c1.06-1.15-0.44-2.49,0.17-3.75
		c1.13-2.38,4.39-3.46,5.93-5.62c1.64-2.31-0.56-4.19,1.55-7.33c1.97-2.95,2.47-4.03,5.37-6.36c7.39-5.94,9.12-16.71,15.77-23.38
		c1.94-1.93,3.58-2.78,3.58-5.78c0-6.92,2.07-3.4,5.21-7.74c1.92-2.65,2.64-8.61,5.37-10.02c3.3-1.71,3.15-3.33,6.91-1.55
		c8.48,4.02,6.47-2.32,11.06-6.35c4.08-3.59,4.35,0.77,8.46,1.63c3.16,0.66,10.95-12,13.34-14.83c8.62-10.18,16.14-4.45,27.16-8.47
		c3.61-1.32,1.77-8.44,9.44-9.61c5.66-0.87,10.9-0.14,16.59-2.61c1.84-0.8,3.47-2.01,5.2-3.01l1.55,1.06
		c1.77,1.44,2.09,3.97,2.52,6.02c0.38,1.8-1.3,2.81-1.22,4.65c0.07,1.61,1.31,2.18,1.87,3.5c0.96,2.25,1.13,3.17,3.42,4.32
		c6.87,0.41,5.45,4.3,5.45,8.47c0,4.19,5-0.73,6.75-0.73c2.02,0,2.98,0.95,5.53,0.81c5.75-0.31-1.12,24.75,10.09,15.8
		c2.15-1.72,11.23,10.07,12.85,11.08l8.7,5.46c1.8,1.13,0.28,4.03,1.54,5.3c3.61,3.61,5.16,5.3,10.25,3.5
		c2.56-0.91,1.58,2.84,2.93,3.18c0.32,1.63-0.39,4.02-0.81,5.7c1.74,6.91,7.31,3.66,9.27,8.96
		C1472.792,920.04,1474.872,924.72,1474.372,927.63z"/>
</g>
</svg>
