<?xml version="1.0" encoding="UTF-8" standalone="no"?>
<svg
 version="1.1"
 viewBox="0 0 1665 2327"
 height="2327" width="1665"
 xmlns:xlink="http://www.w3.org/1999/xlink"
 xmlns="http://www.w3.org/2000/svg">
<title>Sinuskurve 0,30,60,90</title>

<defs>
 <linearGradient id="German" x1="0" x2="0" y1="0" y2="1"
  gradientUnits="objectBoundingBox">
  <stop offset="0" stop-color="#000"/>
  <stop offset="0.3333" stop-color="#000"/>
  <stop offset="0.3333" stop-color="#D00"/>
  <stop offset="0.6667" stop-color="#D00"/>
  <stop offset="0.6667" stop-color="#FFCE00"/>
  <stop offset="1.00" stop-color="#FFCE00"/>
  </linearGradient>
 </defs>
 <path fill="url(#German)"
  d="M373.2957,12.2623c-0.9102,0.1185-1.5459,2.0363-3.2428,1.7939
  c-0.8289-0.1184-3.5222,9.0748-3.9328,10.1424
  c-1.2009,3.1223-3.4085,6.203-4.6917,8.5555
  c-2.0901,3.8318-3.8136,4.3421-6.2096,7.0376
  c-1.5937,1.793-3.6292,3.1305-5.4507,4.6917
  c-0.1321,0.1133-0.0279-0.0131-1.5869,3.1048
  c-1.6507,3.3015-3.4342,7.4178-4.6917,10.1424
  c-1.6431,3.56-1.9235,6.8356-3.1048,10.9703
  c-0.9209,3.2231-1.157,7.8921-1.5869,10.9013
  c-0.4466,3.1263-1.5057,6.5019-2.3459,10.1424
  c-1.5043,6.5187,4.5664,1.9373,5.5197,2.3459
  c0.7525,0.3225,4.6089-10.1125,4.6227-10.1424
  c1.0348-2.2421,1.1819-7.51,1.5869-10.1424
  c0.3806-2.4736,1.1853-6.9736,1.5869-9.3834
  c0.6169-3.7011,3.8606-6.0567,5.4507-8.5555
  c4.3706-6.868,2.0585,0.6402,4.6917,1.5179
  c0.9158,0.3053,6.2733,2.5645,7.7965,3.1738
  c4.1281,1.6512,1.1586-5.4207,1.5179-7.0376
  c0.9455-4.2548-2.0986-7.4485-3.1048-10.9703c-0.0198-0.0694-0.05-0.0751-0.069-0.138
  c0.0259-1.3125,0.069-2.4978,0.069-4.4847
  c2.44-2.0333,3.6293-5.2635,5.4507-7.8655c1.4785-2.1121,6.1875-4.2761,7.8655-5.4507
  c2.3833-1.6683-2.6317-5.1945-3.9327-7.7965
  C374.476,12.7598,373.8419,12.1912,373.2957,12.2623z M384.4731,67.2519
  c-5.9808-0.1163-0.8197,11.2049-0.8279,11.2463
  c-0.9523,4.7613,7.4323,11.1485,8.8315,13.2472
  c2.9841,4.4762,1.3993,9.7949,2.2079,15.4551
  c0.8426,5.8979,0,11.0988,0,15.4551c0,5.2137,5.7763,5.1345,9.9354,8.8315
  c3.851,3.4231,8.4051,5.3487,12.1433,7.7275
  c3.9409,2.5079,1.608,11.2562,2.2079,15.4551
  c1.0929,7.6503-3.9555,7.9111-6.6236,13.2472
  c-1.8655,3.731-10.1914,3.3971-13.2472,4.4157
  c-4.7757,1.5919-9.9155,4.5764-14.3511,6.6236
  c-5.1557,2.3796-6.0784,6.8382-8.8315,9.9354
  c-3.0923,3.4789,2.9438,8.8315,4.4157,13.2472
  c1.09,3.2702,11.7216-3.9072,13.2472-4.4157
  c4.4891-1.4964,8.9623-5.7033,12.1432-7.7275
  c1.8884-1.2017,4.4157,0.736,6.6236,1.1039
  c4.4306,0.7384-5.1517,7.3595-7.7275,11.0393
  c-3.6381,5.1974-4.8887,7.6823-7.7275,12.1433
  c-3.0646,4.8157,5.2499,6.9998,6.6236,8.8315c1.4392,1.919,9.9998,0.9091,12.1432,1.1039
  c3.3698,0.3063,7.1874,7.1874,8.8315,8.8315c5.3282,5.3281,0.7024,8.428,1.1039,13.2472
  c0.3375,4.0504-8.0955-0.7359-12.1432-1.1039
  c-12.3662-1.1242,1.6647-0.8324-6.6236,3.3118
  c-4.5843,2.2921,3.6798,9.5674,5.5197,14.3511c3.1824,8.2741,4.774,4.2435,9.9354,8.8315
  c1.2549,1.1154,13.6179,4.1901,14.3511,4.4157
  c5.7628,1.7732,8.5888,3.3033,14.3511,5.5197
  c5.7445,2.2094,9.3237,6.2158,13.2472,8.8315c4.1463,2.7642,6.5643,8.2054,8.8315,11.0393
  c2.9598,3.6998,3.5846,7.8861,5.5197,12.1433
  l5.5197,12.1432c2.0395,4.4868,4.8961,7.6939,7.7275,12.1432
  c0.8524,1.3396,1.8874,2.5804,2.9668,3.7948c-1.3821-0.6901-2.8177-1.3237-3.9327-1.9319
  c-2.6496-1.4452-3.952-4.0209-5.5197-5.5887c-1.2577-1.2577-2.3991-3.1069-4.2087-5.5197
  c-2.4508-3.2677-4.008-5.58-5.5197-7.6585c-1.6888-2.322-5.0698-4.5697-6.9686-6.2786c-2.1022-1.892-4.6516-3.2078-6.9686-4.8297
  c-1.5497-1.0848-3.5559-5.6569-4.8297-7.6585
  l-4.8987-7.6585c-1.6308-2.5626-2.7849-2.3871-4.8297-4.1398
  c-2.3526-2.0165-5.5068-2.2441-6.9686-2.8288c-4.2107-1.6843-4.4964-0.3689-8.3485-0.6899
  c-3.4142-0.2845-4.8936,0.8731-8.3485,1.4489c-2.8561,0.476-5.8878,1.7904-9.0385,2.7598
  c-4.0853,1.257-6.0022-0.3955-10.4184-0.69c-4.003-0.2668-4.9212-1.562-9.0385-2.8288
  c-2.4253-0.7462-4.4824-5.0427-5.5197-6.2096c-3.0904-3.4767-1.4761-1.7106-4.2087-4.8987
  c-2.9606-3.454-4.2536-1.3949-8.3485-2.7598c-2.1087-0.7029-6.2694,3.1002-8.3485,4.1397
  c-4.849,2.4245-2.0649,3.8547-4.1397,7.6585c-0.8979,1.6461-2.4422,9.2272-2.7598,10.4184
  c-0.1529,0.5734-4.6592,5.8068-5.5887,6.9686c-2.1842,2.7302-0.8885,6.2884-1.3799,9.7284
  c-0.3361,2.3528-1.0642,6.5934,0,10.4184c3.621,13.0145-1.9889,14.6483-2.1389,17.3869
  c-4.1025-1.4501-10.2789-5.9318-11.1083-6.9686
  c-1.5023-1.8778-3.1946-4.5637-4.8297-6.8996
  c-2.1676-3.0966-7.8289,2.9846-9.0385,3.4498c-2.6094,1.0036-1.0582,7.4763-1.3799,9.7284
  c-0.3568,2.4978,3.3935,6.856,4.1397,8.3485c1.3355,2.6709,0.4573,7.3863,0.6899,11.1083
  c0.2641,4.2252-2.3006,6.5107-3.4498,9.7284
  c-1.21,3.3881-4.9118,3.459-6.9686,4.8987c-2.9117,2.0382-2.981-1.3633-6.2786-2.8288
  c-0.5999-0.2666-3.7621-6.2702-4.1398-6.8996
  l-4.1397-6.9686c-0.9978-1.6631-4.3757-4.914-5.5887-6.2786
  c-2.4861-2.7968,3.2383-7.1934,3.4498-7.6585c1.3041-2.869,5.1098-3.666,7.6585-5.5197
  c2.1366-1.5538-3.2078-4.1933-4.8297-6.2786c-2.3907-3.0738-3.2217-5.0232-4.8987-7.6585
  c-1.374-2.1591-0.4583-5.1098-0.69-7.6585c-0.3559-3.9147-4.8434-4.7744-6.2786-6.2096
  c-1.4115-1.4115-6.2409-0.4747-9.0385-0.6899
  c-2.4011-0.1847-5.8481,0-9.0385,0c-3.6119,0-4.9591,0.7523-9.0385,1.3799
  c-1.9118,0.2941-7.3517-3.1902-9.7284-4.2087c-2.6937,0.278-6.6157,3.3424-9.7284,4.8987
  c-2.1724,1.0862-5.2875,2.8841-7.5895,4.1397c-4.2724,2.3304-4.4521-0.4383-6.9686-0.69
  c-2.2068-0.2206-4.968-3.4293-6.9686-4.8297
  c-3.0285-2.1199-4.7155,0-6.9686,0c-2.9702,0-7.2647,1.7989-8.3485,2.0699
  c-4.2001,1.05-5.6189,2.554-7.5895,3.4498
  c-2.643,1.2014-2.8185,5.1098-4.2087,7.6585c-0.2292,0.4202-7.5209,1.242-8.3485,1.3799
  c-3.0622,0.5104-1.5316,2.5196-3.4498,5.5887c-0.4769,0.763,3.9299,5.9639,4.1398,6.2786
  c3.1744,4.7616-0.3623,3.6232-0.69,6.8996
  c-0.2474,2.4738-5.0283,1.5775-6.8996,2.1389c-2.827,0.8481-4.32,1.7004-6.9686,2.7598
  c-3.0191,1.2076-1.3102,5.3098-2.0699,8.3485c-0.559,2.236-0.595,6.3811-0.759,8.3485
  c-0.2861,3.4326,5.0636,1.3621,7.6585,2.0699
  c3.8422,1.0479,4.5614,0.3456,9.0385,0.69c3.0983,0.2383,7.988,1.2183,9.0385,1.3799
  c4.1809,0.6432,5.0355,1.5281,9.0385,2.7598
  c4.453,1.3701,4.6384,2.7345,8.3485,4.8987c3.2944,1.9217,2.6219,3.716,4.8987,6.9686
  c1.6556,2.3652,1.7764,5.9212,2.0699,6.8996c1.1456,3.8185-4.0847,1.5749-5.5887,2.1389
  c-3.2061,1.2023-6.7696-3.1616-9.0385-4.2087
  c-2.6987-1.2455-2.3372-4.6743-3.4498-6.8996c-2.7131-5.4261-2.6985,0-3.4498,0
  c-1.3024,0-0.6763,8.5716-0.759,9.7284
  c-0.216,3.0238-0.8574,5.6419-1.3799,9.0385c-0.451,2.9313-1.3484,5.8432-2.0699,8.9695
  c-0.8327,3.6083-1.2469,5.0566-2.0699,8.3485c-0.7894,3.1577-0.8651,6.1245-1.3799,9.7284
  c-0.3864,2.7047,1.5101,6.1094,2.0699,8.3485c1.0667,4.2669,1.3739,4.6487,2.0699,6.9686
  c1.0654,3.5512-0.3113,3.1823-0.69,6.9686c-0.2243,2.2428-5.2593,4.5415-5.5887,4.8297
  c-2.4559,2.1489-4.6566,4.7256-6.2096,6.2786c-2.0762,2.0762-3.9778,7.2351-4.2087,7.6585
  c-1.8807,3.4479-1.8908,7.002-2.0699,7.6585c-0.8109,2.9734-1.3686,5.9998-2.0699,9.0385
  c-0.6588,2.855-1.0744,7.5901-1.3799,9.7284
  c-0.4922,3.4452-2.4706,5.2835-3.5188,7.5895c-2.2182,4.88-0.3269,1.54-1.3799,6.2786
  c-0.9837,4.4265,0,2.8652,0,6.9685c0,3.4091-1.7136,0.9792-4.8297,2.7599
  c-1.2984,0.7419-4.9973-0.8961-7.6585-1.3799
  c-1.7007-0.3092-5.6508-1.8606-8.3485-2.7598
  c-3.5321-1.1774-5.1-0.4193-8.3485-0.6899c-4.5378-0.3782-5.5152,0-8.3485,0
  c-6.1877,0,0.4356,3.4844,0.69,5.5197c0.2845,2.276,3.2768,3.2768,4.8987,4.8987
  c2.7017,2.7017-1.9245,5.3611-2.7598,7.6586
  c-1.0979,3.0193-2.9831,5.0646-4.8987,8.3484c-1.5557,2.6669,0,4.0441,0,7.5895
  c0,2.68,4.5462,3.5513,6.2786,4.8987
  c3.2299,2.5121,6.9167-0.5267,9.0385-0.69c1.8501-0.1423,6.0285-3.3572,7.5895-4.2087c3.6283-1.979,5.3668,5.3668,5.5887,5.5887
  c0.6755,0.6755-0.4583,1.833-0.69,2.7598c-0.1081,0.4324,0.0654-0.1307-0.69,1.3799c-0.9872,1.9744,1.0354,3.5204,2.0699,6.9686
  c0.9056,3.0185,2.696,5.3231,3.5188,6.9686c1.2575,2.515,5.3784,2.9337,7.5895,4.1397c0.0458,0.025,0.0921,0.045,0.138,0.069
  v2.5529c-0.1889,1.5308-0.8389,6.292-1.1039,8.2795c-0.342,2.5652-0.7864,5.5049-1.1039,7.7275
  c-0.4279,2.9954-1.651,4.2927-2.7598,7.1755c-0.8774,2.2813-4.476,2.8484-6.0716,3.8638
  c-1.7614,1.1208-3.7489,0.3408-6.0716,0.552c-2.4517,0.2228-4.555,2.657-6.6236,3.8638
  c-2.3019,1.3428-3.2564,3.6182-4.9677,5.5197c-1.8252,2.028-2.7624,4.3409-3.8638,6.0716
  c-1.6536,2.5985-3.3,4.0334-4.9677,6.0717c-1.279,1.5632-5.5634,1.7118-7.1756,2.2079
  c-3.0255,0.9309-2.2117,1.2287-4.9677,2.7598c-1.2233,0.6796,4.6022,5.1136,4.9677,5.5197
  c1.5786,1.754,2.6728,3.4365,3.8638,4.9677c1.5162,1.9495-0.3874,4.649-0.552,6.6236c-0.1815,2.1779-1.6136,4.8408-2.2079,6.6236
  c-0.8911,2.6732-2.8448,4.2672-4.4157,6.6236c-1.1896,1.7844-2.4744,3.959-2.7598,4.4157
  c-1.3255,2.1209-5.9578,0.9166-7.1756,1.1039c-0.4327,0.0666-4.5229-3.6183-5.5197-4.4157
  c-3.0011-2.4009-4.9496,1.1422-7.1756,1.6559c-1.4433,0.3331-4.3118,4.791-4.9677,5.5197
  c-2.6008,2.8897-4.2142,1.0535-6.6236,1.6559c-2.0352,0.5088-4.0478-1.1039-6.0716-1.6559
  c-3.2032-0.8735-2.5876,5.6926-2.7598,6.0717c-1.587,3.4914-2.7605,3.9436-3.8638,5.5197
  c-1.2201,1.743-6.2913-2.4197-7.1756-2.7598c-2.204-0.8477-3.4526-4.7473-4.4157-6.0717
  c-1.711-2.3527-3.0872-2.161-5.5197-3.8638c-2.0117-1.4081-5.7271-2.2028-7.1756-2.7598
  c-3.5763-1.3755-2.7827,3.5778-3.8638,4.9677c-0.7256,0.9329-2.2458,2.5667-3.8638,4.4157
  c-2.0207,2.3094-5.8552,0.3903-8.2795,0.552c-1.6555,0.1104-2.9864,0-6.0716,0c-3.006,0-3.7991,1.2663-6.6236,2.2078
  c-2.0981,0.6994,0.5089,6.6152,0.552,7.1756c0.1189,1.5459,3.653,4.5662,4.4157,5.5197c1.651,2.0638,2.7748,3.9639,3.8638,5.5197
  c1.2791,1.8273,2.796,2.796,4.4157,4.4157c1.889,1.889,1.5721,5.1095,2.2079,7.1756c1.2496,4.061-1.0136,4.3921-1.6559,7.1755
  c-0.6633,2.8741-1.069,5.7014-1.6559,8.8315c-0.4347,2.3184,1.635,4.4963,2.2079,6.0717c1.2218,3.36,3.0939,3.4377,4.9677,5.5197
  c1.7234,1.9149,4.3688,1.4562,6.6236,2.2078c3.894,1.298,2.0483,2.3044,4.4157,4.9677c1.7584,1.9783-2.0383,6.1151-2.2079,6.6236
  c-0.7606,2.2819-2.072,4.8348-3.3118,7.7275c-1.1594,2.7053,0,2.2418,0,5.5197v6.6236c0,3.4744-2.0403,3.0604-3.3118,4.9677
  c-1.1256,1.6884-2.1371,2.4424-3.8638,4.4157c-1.6832,1.9236-3.4647,3.4647-4.9677,4.9677
  c-1.2436,1.2437-2.7046,3.4774-3.8638,4.9677l-3.8638,4.9677c-3.0166,3.8785,1.8289,4.5723,2.2079,5.5197
  c0.6968,1.7421,3.6798,0.736,5.5197,1.1039c2.5648,0.5129,2.2513,4.1274,3.3118,6.0716c1.2956,2.3753,0.2851,3.1362,0.552,6.0717
  c0.1691,1.8602-2.7656,5.5312-3.3118,6.6236c-1.2344,2.4687-2.7682,3.4602-4.4157,5.5197
  c-1.7206,2.1508-4.5814,0.3524-7.1756,0.552c-1.4717,0.1132-4.6075,0-7.1756,0c-3.7198,0-2.5039,3.9346-3.8638,6.0716
  c-1.6019,2.5172,2.2491,5.8477,2.7598,7.1756c0.9088,2.3627,3.4276,4.9509,4.9677,7.1755
  c1.6517,2.3857,1.2045,5.6209,1.6559,7.7275l1.6559,7.7275c0.9131,4.2609-1.4138,2.8276-2.7598,5.5197
  c-0.5266,1.0531-2.5749,2.207-3.8638,3.3118c-1.361,1.1666,0.419,5.8656,0.552,7.7275c0.239,3.3459,1.4509,4.7153,2.2079,7.1756
  c0.701,2.2782,3.1107,1.9442,4.4157,2.7598c1.7439,1.09,2.0514,4.5129,2.7598,6.0716c0.6381,1.4039,0.8856,5.7563,1.1039,7.1756
  c0.5073,3.2978,1.0042,4.6865,1.6559,7.7275c0.747,3.486,3.2445,1.8025,4.9677,2.7598c2.2296,1.2387,4.112,2.4672,5.5197,3.3118
  c1.0855,0.6514-0.4989,7.4843-0.552,8.2795c-0.0822,1.2334-3.7421,3.2743-4.4157,3.8638
  c-2.6816,2.3464-1.0366,4.1464-1.6559,6.6236c-0.2897,1.1589,1.3061,5.2243,1.6559,6.6236
  c1.2163,4.8654,2.6863,2.3026,3.8638,3.3118c1.8871,1.6175,6.4173-1.4809,7.1756-1.6559
  c3.2841-0.7579,4.3356,1.9708,6.0716,2.7598c1.9386,0.8812,0.7848,5.1013,1.1039,7.1755c0.2828,1.838-1.506,6.0239-1.6559,6.6236
  c-0.3337,1.3348,0.4706,5.1763,0.552,6.0717c0.2025,2.2276,1.9398,3.8795,2.7598,5.5197
  c1.1028,2.2057,2.738,3.9114,3.8638,5.5197c0.5666,0.8094,1.1949,1.8888,2.2079,2.5529
  c-0.3295-0.1234-0.5916-0.2311-1.1039-0.345c-3.9274-0.8727-0.9184,0.3444-4.4157,1.6559
  c-2.2462,0.8423-2.5758,4.0478-3.8638,6.0717c-1.1044,1.7355-4.0478-0.736-6.0716-1.1039
  c-2.3541-0.428-0.3853,0.1541-2.7598,1.1039c-2.3283,0.9313-1.4533,2.1799-3.3118,4.9677
  c-0.7315,1.0973-1.9463,3.5034-2.7598,4.9677c-1.1771,2.1188-3.3888,2.6357-4.9677,3.8638
  c-2.7203,2.1158-1.8596,4.0293-3.3118,7.1756c-1.3588,2.944-2.4186,3.0232-4.4157,5.5197
  c-0.4005,0.5007-4.5129,3.0087-4.9677,3.3118c-1.5057,1.0038,2.0865,6.2594,2.2079,6.6236
  c0.7468,2.2404-1.7537,4.8227-2.2079,6.0716c-0.9188,2.5266-1.3846,4.8461-2.2079,7.7275
  c-0.9363,3.2771,0.4234,5.0812,0.552,6.6237c0.2573,3.0872,1.5889,4.7666,2.2079,6.6235c0.5489,1.6467,2.9438,1.84,4.4157,2.7599
  c2.9429,1.8392,1.7831,1.5601,4.4157,3.8638c1.3916,1.2175,0.368,3.6797,0.552,5.5197c0.1751,1.7507,4.5696,4.1125,5.5197,4.9677
  c2.208,1.9872,1.9569,3.2616,3.3118,5.5197c1.1879,1.9799,2.2081,3.3123,3.3118,4.9677
  c1.4521,2.1782,4.6547,2.3274,6.6236,3.3119c1.9238,0.9619,6.1565,0.8208,8.2795,1.1039
  c0.9361,0.1248,2.9009,5.3185,3.3118,6.0717c1.1282,2.0682,0.3868,5.8026,0.552,8.2795c0.188,2.8202,0,5.8413,0,7.7275
  c0,1.4404-2.6522,4.4203-3.3118,5.5197c-1.2575,2.0958-3.472,3.8577-4.9677,5.5197c-1.9471,2.1633-2.5325,4.2208-3.3118,5.5197
  c-1.0697,1.7827,0.7652,4.5912,1.1039,6.6235c0.5442,3.2651,0.7684,2.3053,1.6559,4.9678
  c0.3557,1.0671,5.0013,2.0839,6.6236,2.7598l1.9319,0.828c-2.8594-0.7057-5.919-1.032-9.3834-1.725
  c-4.1086-0.8217-4.0519,1.4421-8.6245,3.1049c-5.1298,1.8654-2.1597,4.6564-4.6917,10.1423
  c-1.3012,2.8193,6.0094,5.3647,7.0376,6.2787c1.7215,1.5302,10.57,0.6816,11.7293,0.7589
  c5.2628,0.351,5.525,3.5222,8.5555,5.4507c2.4054,1.5308,0,9.8219,0,10.9014c0,4.6868,0.6097,7.3054,0.8279,10.1423
  c0.2267,2.9473,4.2011,4.7781,6.2096,7.0376c2.6717,3.0057,4.6569,6.2092,7.0376,9.3834
  c2.3243,3.099,3.4172,7.9275,4.6917,10.9014c1.3039,3.0426,2.7424,6.1576,3.8638,8.6245
  c2.4745,5.4438,6.7359-0.5873,8.6245-0.759c2.7809-0.2528,5.1991-7.8677,6.2096-9.3834c3.4238-5.1357,3.9-0.3623,7.8655-0.7589
  c0.7544-0.0754,4.0333,8.8652,4.6227,10.1423c1.2847,2.7836,2.6468,8.4296,3.1738,10.1425
  c1.5787,5.1306,4.8233-0.6547,6.2096-0.828c2.7928-0.3491,3.1305-4.6267,4.6917-6.9685
  c1.8371-2.7557,4.6958,4.6267,7.0376,6.9685c3.0092,3.0092,4.9488,2.2935,8.5555,3.9327
  c4.1846,1.9021,9.6059,1.4897,12.2123,0.621c3.6674-1.2224,3.61-4.96,4.9677-6.8995c1.3757-1.9653-3.3434-9.3185-3.8638-11.6603
  c-0.1754-0.7892,0.0741-0.2913,0.759-2.3459l0.207,0.4141c-0.0796-0.2283-0.1034-0.4103-0.138-0.621h0.759
  c-0.022,0.0951-0.0491,0.1764-0.069,0.276c-0.0631,0.3153-0.1281,0.6406-0.138,0.9659l-0.414-0.621
  c0.0997,0.2863,0.2365,0.5903,0.414,0.897c0.0302,2.201,1.2399,4.6039,2.8978,6.8995c0.3461,0.4791,0.6033,0.7668,0.897,1.1039
  c0.8154,1.2777,1.7345,2.2469,2.6218,2.3459l-0.138-0.276c0.4908,0.3158,0.9903,0.7117,1.5869,1.2419
  c1.4814,1.3168,5.3319,1.7772,6.6236,2.2078c2.6071,0.8691,1.9899,3.3165,3.3118,5.5198
  c0.8622,1.437,1.4887,4.0939,2.2079,6.0715c0.9214,2.5337,2.751,4.323,3.8638,6.0717c1.1919,1.873,3.4396,2.4077,5.5197,3.8638
  c2.6658,1.866,4.915,2.048,6.6236,2.7599c1.6794,0.6997,5.0447,1.5134,5.5197,1.6559c2.0666,0.62,6.7717,0,7.7275,0
  c2.4538,0,5.635,0.7512,8.2795,1.1039c0.8196,0.1093,5.2298-3.8035,6.0716-4.4158c2.8928-2.1038,5.5869-1.5962,7.7275-2.2078
  c3.3762-0.9646,4.0594,1.4761,6.0716,2.2078c1.8018,0.6553,4.0824,2.8577,5.5197,3.8638
  c1.5948,1.1163,4.259,2.3231,6.0716,3.3119c2.4123,1.3158,3.5488,2.1293,5.5197,3.3118c2.864,1.7184,3.0859,0.5612,6.0716,1.1039
  c2.9287,0.5325,4.3026,2.3468,6.0716,3.3119c2.2257,1.214,2.7225,3.403,4.4157,5.5197c1.5157,1.8945,3.7253,2.7749,5.7267,3.4497
  v1.7939h2.5529c-0.9601,1.3107-2.0654,2.8831-2.8288,3.9327c-2.6299,3.6162-3.0901,4.8461-5.4507,8.5555
  c-1.8197,2.8595-1.5309,6.6112-2.3459,10.1423c-0.4181,1.8118-1.0601,6.2228-1.5869,9.3834
  c-0.8692,5.2151-3.4426,5.941-5.4507,9.3834c-1.3395,2.2964-6.7372,1.5601-10.1424,2.3458
  c-4.0392,0.9321-5.0755,3.546-7.7965,5.4507c-2.8959,2.0272-5.5237,6.7053-7.0376,8.5555
  c-1.6187,1.9784-6.3285,5.2155-8.5555,7.0376c-2.5134,2.0564-2.986,4.9536-4.6917,7.7965
  c-1.7814,2.969-2.8241,5.6482-4.6917,9.3834c-1.803,3.606-1.4388,6.6685-2.3459,10.9014
  c-0.9267,4.3246-2.6641,5.3282-4.6917,9.3834l-4.6917,9.3834c-1.9481,3.8962-2.2533,5.5183-3.8638,9.3834
  c-0.1369,0.3284-0.7323,9.5619-0.828,10.9012c-0.1904,2.6663-4.6906,8.7307-5.4507,10.1425
  c-1.9535,3.6278-2.0323,5.1151-3.1048,7.7965c-0.6377,1.5942-3.0379,5.427-3.9328,7.0376
  c-2.0913,3.7643-2.3558,5.3069-3.8638,8.6245c-1.7549,3.8606-1.7833,8.2759-2.3459,10.9012
  c-0.8856,4.1329-0.5396,6.3934-0.828,10.1425c-0.3084,4.0089,0,6.0292,0,9.3834c0,5.0762-1.63,6.7959-2.2769,9.3834
  c-0.935,3.7397-2.1475,4.6593-3.1738,6.9685c-0.7961,1.7914-6.0563,2.2883-6.2096,2.3459
  c-3.2943,1.2352-1.4715,1.738-3.9328,4.6917c-2.2169,2.6603,0,9.9937,0,12.4883c0,4.2469,1.5694,7.8468,2.3459,11.7292
  c0.7101,3.5503,1.9298,8.9601,2.3459,10.9014c1.0319,4.8157,4.5362,3.8032,4.6917,3.9327
  c1.4028,1.1691,8.1214-2.2274,8.5555-2.3458c1.0041-0.2738,2.133,0,3.1738,0h0.759c4.0569,0,3.3681,6.1978,4.6917,8.6245
  c1.6416,3.0095,1.6835,7.2719,2.3459,10.1423c1.5802,6.8475,2.6655,1.1522,5.4507,2.3458
  c2.3173,0.9932,7.5573-6.958,8.5555-7.8655c3.2832-2.9847,8.4836,1.5613,8.6245,1.5869
  c2.9092,0.5289,7.2746,1.0687,10.9013,1.5869c2.1855,0.3121,6.5786,0,10.1424,0c4.3556,0,5.2943-5.2944,7.7965-7.7965
  c3.3971-3.3972,5.1431-4.5875,7.8655-7.0376c0.4268-0.384,7.3592,3.645,7.7965,3.8638c3.3545,1.6771,3.9876,4.5378,6.2096,7.0376
  c2.7656,3.1112,4.3676,3.374,7.0376,5.4506c2.0108,1.5641,10.2671,0,10.9013,0h10.9703c2.9667,0-1.5653-5.6932-2.3459-8.5554
  c-0.8927-3.2729-6.7598-0.4988-10.1424-0.7589c-1.731-0.1332-3.9998-5.9999-4.6917-7.0376
  c-1.0859-1.6288,2.1773-5.4779,3.1048-7.7965c0.8535-2.1338,5.6787-5.0708,7.0376-6.2787
  c2.6053-2.3158,3.7534-5.3718,5.4507-7.7965c2.0258-2.8939,4.1381-4.6294,6.2786-7.0376
  c3.3412-3.7588,3.9242,1.1841,7.7965,2.3458c1.5025,0.4508,6.6173,3.6993,7.0376,3.9329
  c3.4107,1.8948,8.3264,0.5367,11.6603,0.7589c3.3941,0.2263,5.5315,4.797,6.2786,5.4507
  c1.2797,1.1196-4.1409,7.6146-4.6917,8.6245c-2.3071,4.2296-3.0912,3.5131-5.4507,6.2096
  c-3.1675,3.62,2.0002,4.0002,2.3459,4.6917c1.406,2.8121,5.6933-2.6317,8.5555-3.9327c4.6922-2.1328,2.1346-3.7318,3.9328-6.9685
  c3.6623-6.5922,3.115-0.8134,6.2096-1.5869c3.6754-0.9189,7.3275,2.064,10.9703,3.1047c1.7833,0.5095,8.52-3.9429,10.1424-4.6917
  c4.3361-2.0013,5.7134,0,9.3834,0c3.0436,0,5.8078,6.5067,6.9686,7.7965c2.3867,2.6519,5.0731,5.0731,7.0376,7.0376
  c5.0012,5.0011,2.301-2.301,3.1048-3.1049c0.9435-0.9436-4.4151-5.7062-5.4507-7.0376
  c-2.5327-3.2562-4.9273-3.4423-7.7965-5.4507c-3.1424-2.1997-5.574-3.5532-8.5555-5.4506
  c-3.296-2.0975-4.0791-3.457-5.5197-4.6918c-6.0295-5.1682,3.0801-4.9144,3.9328-6.2786
  c1.0946-1.7513,8.8464,5.4811,10.1424,6.2786c3.5661,2.1946,5.2848,5.7926,7.7965,8.5555
  c2.0221,2.2242,5.6447,4.0133,7.7965,5.5197c2.719,1.9033,5.8383,4.1832,8.6245,6.2096c1.7353,1.262,4.128-1.0665,6.2096-1.5869
  c3.9445-0.9862,7.0522,3.8341,8.6245,4.6917c2.106,1.1487,3.6292,3.1306,5.4507,4.6918
  c0.1276,0.1094,8.3206-1.2377,10.1424-1.5179c2.2242-0.3422,6.5456,3.8722,7.7965,4.6228
  c2.4569,1.4741,4.5285,6.218,6.2786,8.6244c2.7693,3.8077,6.6718,4.0739,10.1424,6.2097c1.965,1.2091,8.205-0.5664,10.9013-0.759
  c4.4034-0.3145,5.6718-3.9634,7.7965-5.4507c1.6385-1.1469,2.5238-2.4739,3.3808-3.9327c0.0055-0.0094,0.0634,0.0094,0.069,0
  h2.1389c-1.0198,3.0854-2.0441,6.4087-2.3459,6.8306c-2.8129,3.9321-0.2245-0.8979,2.2079,8.8315
  c1.1039,4.4156,8.8315,2.2078,13.2472,3.3118c5.525,1.3812,5.5535,5.5535,8.8315,8.8314
  c2.8068,2.8068,6.4295,4.8221,8.8315,6.6237c2.2499,1.6874,0,6.937,0,12.1432c2.141,0,11.9968,0.2572,16.559,2.2079
  c6.1115,1.1112-0.9286,9.2864-1.1039,11.0393c-0.4783,4.7834,0,8.4227,0,12.1433c0,2.9437,5.8876,0,8.8314,0
  c0.3405,0,6.4662-9.2375,7.7275-11.0393c3.3672-4.8103,7.5767-7.5768,11.0394-11.0393l2.2078-2.2079
  c0.5858-0.5858-0.3435-0.3435-4.4157-4.4158c-6.2363-6.2362-2.015-6.5487-4.4157-14.3511
  c-0.9451-3.0714,4.2106-10.1053,5.5197-13.2472c2.0006-4.8016,5.2278-8.962,7.7275-13.2472
  c1.8541-3.1786,4.4157,5.8877,6.6236,8.8314c2.3779,3.1705,2.9438,7.3595,4.4157,11.0393
  c1.5995,3.999,8.0955-2.9437,12.1432-4.4158c1.7634-0.6411,3.6797,0.736,5.5197,1.104
  c1.1808,0.2361,11.9152-0.9929,13.2472-1.104c4.2766-0.3563,7.3596,4.4158,11.0394,6.6237
  c0.8183,0.491,7.1712,3.1871,9.9354,4.4158c4.0909,1.8181,1.4719,8.8314,2.2079,13.2472
  c0.6028,3.6169,7.3769,7.3768,9.9354,9.9353c3.8217,3.8218,7.3729-2.6809,12.1432-4.4156
  c10.0778-3.6648,3.5637,0.3564,11.0393,1.1039c5.045,0.5045,6.774-2.7096,11.0394-4.4158
  c5.6638-2.2655,7.2376-4.6057,12.1432-7.7274c5.8901-3.7483,7.1957-2.7677,14.3511-5.5198
  c5.45-2.0961,13.711-1.1683,17.4559-0.8279c3.7258-2.7097,10.7733-6.8472,14.5581-10.2114
  c0.437-0.3883,6.2539-8.0426,9.9354-8.8314c4.9368-1.0579,11.5721-2.9236,15.4551-3.3118
  c4.2162-0.4218,2.9957-2.1094,11.0393-1.104c4.7417,0.5927,13.4116,2.8621,17.663,2.2079
  c4.5672-0.7026,12.0187,1.6794,14.3511-2.2079c1.3284-2.214,3.3074-8.7434,6.6236-11.0393
  c1.0554-0.7306,9.9778-15.5582,14.3511-9.9354c3.2733,4.2085,1.1121,7.5299,7.7275,9.9354
  c6.1449,2.2345,7.3923,1.8243,12.1432,4.4158c1.4849,0.8098,6.0729,11.5902,12.1432,6.6235
  c4.0478-3.3118,7.1817-11.5892,12.1432-9.9353c3.3118,1.1039,6.5675,4.2302,9.9354,3.3118
  c4.0477-1.104,11.1257-7.3822,12.1432-3.3118c0.9318,3.7272,3.8864,0.4391,2.2079,8.8314
  c-0.736,3.6798-5.6922,9.6456-2.2079,11.0393c0.4039,0.1616,9.1711,1.302,11.0393,4.4158
  c1.7278,2.8798,2.9744,8.6066,6.6236,11.0393c2.2424,1.495,4.7305,11.8285,9.9354,6.6235
  c3.8204-3.8204,7.3544-2.8761,7.7275-7.7275c0.4397-5.7159,0.8618-10.9614,1.1039-14.3511
  c0.2235-3.129,2.6958-14.4999,1.1039-15.4551c-0.4131-0.2478-10.09-5.2675-11.0393-6.6235
  c-0.7789-1.1128-12.1775-4.6824-7.7275-11.0394c1.2648-1.8069,7.2714-9.2151,7.7275-11.0393
  c0.9163-3.6653,8.5275-12.6373,4.4157-17.6628c-3.8864-4.7501-1.2431-10.6946-9.9354-12.1433
  c-2.1871-0.3645-12.8931-1.2341-13.2472-2.2079c-1.4719-4.0477-1.9458-8.6147-4.4158-12.1432
  c-2.5758-3.6799-9.4551-6.8932-7.7275-11.0394c2.9669-7.1205,1.2012-7.6948,5.5197-13.2472
  c0.5669-0.7289,6.9901-9.5667,7.7275-9.9353c4.4478-2.224,3.7427-5.0519,8.8314-4.4158
  c4.9991,0.6249,7.8116,3.3477,8.8315,1.1039c2.1195-4.663,1.4413-8.8806,5.5197-12.1432
  c3.4908-2.7927,6.5265-8.1372,11.0394-8.8315c5.1003-0.7847,10.4891,0.2499,14.3511-2.2078
  c6.1347-3.9039,8.4005-2.3807,12.1433-7.7275c3.434-4.9058,4.974-6.4502,7.7275-11.0394
  c2.6366-4.3943,5.4056-3.1218,6.6236-11.0393c0.8011-5.2074,0.5463-11.5818,2.2079-14.3511
  c1.4319-2.3866,2.7778-11.0393,6.6236-11.0393c0.691,0,9.7381,0.3002,11.0394,0c3.3443-0.7719,13.2838-0.1097,14.3511-3.3119
  c1.4127-4.2379,5.4602-6.4585,4.4158-13.2472c-0.9081-5.9022-1.1047-9.571-2.2079-14.3511
  c-0.8561-3.71-1.9197-9.2471-3.3118-14.3512c-2.2411-8.2172,4.8292-9.012-3.3118-12.1432
  c-5.5231-2.1244-10.1104-3.3993-14.3511-5.5197c-3.5521-1.7761-9.543-4.4628-13.2472-6.6237
  c-3.1926-1.8623-11.9582-3.2159-13.2472-7.7275c-1.5256-5.3396-0.6776-10.7823-4.4157-15.4551
  c-3.8618-4.8273-2.2112-9.1477-8.8315-11.0393c-4.7595-1.3597-11.8318-0.7925-15.4551-4.4156
  c-3.4236-3.4237-7.7581-5.1454-9.9354-9.9354
  c-1.6356-3.5983-2.4153-8.349-5.5197-12.1433
  c-3.3258-4.0648-5.524-7.2908-9.9354-12.1432
  c-2.0565-2.2622-6.508-12.5209-11.0393-12.1433
  c-0.8451,0.0704-11.6898,2.1422-13.2472,1.1039
  c-3.2894-2.1929-10.7282-4.2131-13.2472-8.8314
  c-2.1285-3.9023-2.9763-5.8907-6.6236-12.1432
  c-2.4297-4.1652-4.873-8.7615-7.7275-13.2473
  c-2.2525-3.5394-6.2809-7.8033-7.7275-12.1432
  c-1.2395-3.7185-1.7547-8.923-4.4157-13.2472
  c-2.6609-4.3239-6.5408-9.0061-8.8315-14.3512
  c-1.1909-2.7787-7.6272-12.6949-6.6236-15.455
  c1.2839-3.5306,2.2739-7.5027,4.4157-12.1433
  c0.5557-1.2041,7.5369-12.7073,6.6236-14.3511
  c-1.1899-2.1418-3.188-6.2715-5.5197-9.9354
  c-3.233-5.0804-3.1101-7.5259-7.7275-12.1433
  c-4.7652-4.7653-7.0163-6.614-11.0393-11.0393
  c-2.855-3.1405-8.1407-8.4164-11.0394-12.1433
  c-2.0161-2.5922-7.7275-6.4467-7.7275-9.9353
  c0-0.7802,1.6955-9.4789,0-12.1433c-2.1992-3.4558-3.1603-8.1851-7.7275-12.1432
  c-0.2761-0.2393-0.5444-0.5571-0.8279-0.8279v-3.3808
  c4.5361,3.7076,7.2197,5.9528,8.5555,8.6245
  c3.2373,6.4748,7.6223,1.3859,12.1432,2.2079
  l12.1432,2.2079c4.1207,0.7491,9.0027-8.1843,12.1432-11.0394
  c3.2484-2.9531,6.0552-6.0552,8.8315-8.8315
  c4.1573-4.1573,7.922-6.4816,12.1432-9.9354
  c4.9088-4.0162,7.4609-4.7478,12.1432-7.7275
  c6.5406-4.1622,8.855-1.265,15.4551-2.2079
  c4.6003-0.6572,10.7245,1.7875,13.2472,2.2079
  c7.835,1.3058,8.2437-4.4965,12.1432-6.6236
  c1.9663-1.0725,7.1853-5.5885,9.9354-7.7275
  c4.9178-3.825,6.5415-5.8874,11.0393-9.9354c5.0325-4.5293,6.178-6.178,8.8315-8.8315
  c4.2504-4.2504,7.1002-3.5501,11.0393-5.5197
  c4.2635-2.1317,7.5283-3.422,12.1432-5.5197
  c0.4938-0.2245,10.1831-3.055,11.0394-3.3118
  c3.9406-1.1821,3.6797-7.3596,5.5197-11.0393
  c1.3206-2.6411,12.5055-2.6798,15.4551-3.3118
  c5.7811-1.2388,9.7924-3.7663,14.3511-5.5197
  c2.9112-1.1197,10.3326-2.5832,13.2472-3.3118c6.853-1.7133,4.6459-3.6135,9.9354-7.7275
  c4.8457-3.7689,6.0558-4.0372,9.9354-6.6236c1.7686-1.179,15.2813,0,16.559,0
  c3.215,0,9.7869-8.8082,11.0393-9.9354
  c1.8622-1.6759,9.8877-6.2922,12.1433-7.7275c5.1486-3.2764,0-7.4615,0-11.0393
  c0-4.6107-4.4158-8.0955-6.6237-12.1432
  c-2.3966-4.3939,9.5675-2.9438,14.3512-4.4158
  c3.4874-1.0731,9.8448,2.4612,13.2472,3.3118
  c7.5643,1.8911,4.619,2.5661,9.9354,5.5197
  c4.194,2.33,0.736,9.5674,1.1039,14.3511c0.1632,2.1219,9.493,2.3733,13.2472,3.3118
  c1.9076,0.4769-3.4193,9.4032-4.4158,12.1433
  c-1.7742,4.879,9.5347,7.801,12.1433,9.9354
  c5.6827,4.6495,8.7395-2.6218,11.0393-3.3118
  c3.7299-1.1189,5.3176-10.6354,6.6237-13.2472
  c2.6841-5.3683,2.9543-10.3406,4.4156-15.4551
  c1.1589-4.0563,2.3967-9.5866,3.3119-13.2472c1.2936-5.1748,0-7.4727,0-14.3511
  v-16.559c0-3.9594,2.9769-8.9307,4.4156-13.2472
  c1.8146-5.4435-2.3552-11.7768-3.3118-16.559
  c-0.5747-2.8738-5.0969-9.3444-6.6235-12.1432
  c-2.3551-4.3174,3.6487-7.2973,5.5197-11.0394
  c0.1246-6.577-5.6635-10.6609-9.9354-17.6629
  c-1.5018-1.8356-13.1047-2.0161-14.3512-2.2079
  c-3.7106-0.5708-7.0848-1.4452-10.2803-2.2769
  V740.03c4.203,0.3156,2.1132-1.6014,4.7606-2.4838
  c0.6931-0.2311,2.0327-12.1961,2.2079-13.2472
  c0.7599-4.5594-7.5901-6.7468-9.9354-8.8315
  c-4.4908-3.9919-1.4233-3.7957-3.3118-8.8315
  c-2.6329-7.0211-5.4036-6.7546-8.8314-11.0393
  c-4.5541-5.6925-0.8488-6.7894-1.104-8.8315
  c-0.1654-1.3239,5.8403-9.7339,6.6237-11.0393
  c2.715-4.525,1.5465-10.8259,2.2079-15.4551
  c0.4365-3.0558,3.2655-9.7966,4.4156-13.2472
  c0.8489-2.5464-1.6497-11.5478-2.2078-15.4551
  c-0.2832-1.9819,0.757-10.599,1.1039-15.455
  c0.5675-7.9456-0.6093-7.312-1.1039-13.2472
  c-0.1158-1.3896-11.7532-6.4108-12.1433-6.6236
  c-2.463-1.3435-4.3359-9.5389-5.5197-12.1433
  c-2.7543-6.0594-2.1117-9.8543-3.3118-15.455
  c-0.7236-3.3766,5.5157-8.2737,6.6235-9.9354
  c2.9242-4.3863,1.4872-10.4102,2.2079-15.4551
  c0.5165-3.6158-7.1035-9.7673-8.8314-12.1432
  c-3.421-4.7039-7.4617-6.7155-11.0394-9.9354
  c-4.6863-4.2177-5.6561-7.7773-8.8314-12.1433
  c-2.8456-3.9128-9.9158-5.3392-14.3511-7.7275
  c-4.9845-2.6839-8.8179-7.3482-13.2472-11.0393
  c-4.5322-3.7769-6.3616-3.5342-9.9354-5.5197c-7.1417-3.9676,0-6.632,0-13.2472
  c0-3.4802,9.3567-9.3567,11.0393-11.0393
  c5.1061-5.106,4.8195-9.6388,7.7275-15.455c2.218-4.4359,5.2373-8.2302,7.7275-12.1433
  c3.0183-4.7432,3.6357-9.453,5.5197-14.3511
  c3.3331-8.666,7.0886-12.1519,7.7275-13.2472
  c0.2227-1.3359-4.2104-11.7894-5.5197-15.4551
  c-2.9041-8.1315-3.6979-4.1443-6.9686-4.7607
  c0.1196-0.2505,0.2142-0.5192,0.345-0.7589
  c0.7103-1.3022,1.6796-5.0387,3.3119-9.9354
  c0.8794-2.6384-4.5286-10.8683-5.5198-13.2472
  c-2.1279-5.1073-0.7362-11.0441-1.1039-16.559
  c-0.198-2.9707-3.8077-10.4713-4.4158-12.1432
  c-1.7134-4.7119-1.7524-10.5149-2.2078-13.2472
  c-0.0715-0.4286-0.0785-0.5218-0.1381-0.8969
  c-0.4496-0.7692-1.077-2.1407-2.0698-4.6227
  c3.6556-9.5049-6.551-7.2788-9.9354-11.0393
  c-1.5454-1.7171-11.4341,3.8113-13.2472,4.4157
  c-2.6362,0.8788-7.0513-9.0661-7.7275-9.9354
  c-3.5042-4.5054-8.5972-1.984-14.3511-3.3118
  c-5.4045-1.2472-4.061-7.4452-6.6236-12.1432
  c-2.7995-5.1325-3.8634-7.7268-5.5197-11.0393
  c-1.6539-3.3077-0.736-7.3595-1.1039-11.0393
  c-0.043-0.4298-7.8958-11.8437-8.8315-13.2472
  c-1.1148-1.6722,4.3636-13.1918,5.3127-15.2481
  c2.4996-5.4159-5.1237-6.342-7.5205-9.0385
  c-2.2146-2.4914-11.4459-0.8804-14.3511-1.1039
  c-3.7416-0.2878-7.3596-1.4719-11.0394-2.2079
  c-4.1141-0.8228-5.1517,6.6236-7.7275,9.9354
  c-2.8932,3.7198-5.8876-7.3595-8.8315-11.0393
  c-2.8434-3.5542-8.8315-2.2079-13.2472-3.3118
  c-1.4954-0.3738-9.3925-5.1232-12.1432-6.6236
  c-4.0162-2.1907-8.581-3.9004-12.1433-5.5197
  c-6.1866-2.8121-0.9246-6.4721-1.1039-7.7275
  c-0.3812-2.6681,0.4294-3.8652,1.1039-9.9354
  c0.3419-3.0762-3.8771-11.6315-4.4157-13.2472
  c-1.2661-3.7981-5.1583,3.6845-7.7275,5.5197
  c-2.1799,1.5571-5.1517-1.4719-7.7275-2.2079
  c-4.0341-1.1526-6.6236,5.1517-9.9354,7.7275
  c-1.269,0.987-11.8218-4.9257-13.2472-5.5197
  c-3.4931-1.4554-7.3534,1.337-12.1432,2.2079
  c-4.4106,0.8019-3.7352,4.9802-6.6236,8.8315
  c-3.0104,4.0138-3.4169,9.3964-4.4158,12.1432
  c-1.6984,4.6706-5.2843,8.4549-5.5197,8.8315
  c-2.0079,3.2127-3.6797-6.6236-5.5197-9.9354
  c-0.957-1.7226,5.816-11.6322,6.6236-13.2472
  c1.8054-3.6107,8.1779-7.3601,11.0393-9.9354
  c3.6742-3.3067,9.564-2.9428,14.3511-4.4157
  c5.3694-1.6521,10.7305-2.2994,15.4551-3.3118
  c5.5306-1.1851,10.2952-3.9597,14.3511-5.5197c2.0685-0.7956-11.0717,0-13.2472,0
  c-4.4395,0-10.2285,1.4612-15.4551,2.2079
  c-6.4335,0.9191-8.8981-3.7075-13.2472-5.5197
  c-7.6382-3.1826-5.0054,0.5005-11.0393,1.1039
  c-5.0173,0.5017-7.303,6.4915-9.9354,8.8315
  c-3.2804,2.9159-2.3527,10.9794-3.3118,15.4551
  c-0.3129,1.4598-9.3126,9.3125-9.9354,9.9354l-8.8315,8.8315
  c-5.0837,5.0837-6.4324,7.8619-9.9354,12.1433
  c-3.0292,3.7024,0,9.5674,0,14.3511c0,3.6798-7.3596,0-11.0394,0
  c-0.2785,0-5.2473-11.544-5.5197-12.1433
  c-1.95-4.29-5.8876,7.3595-8.8315,11.0393c-4.4995,5.6245-7.2784,1.4557-11.0393,2.2079
  c-4.345,0.869-8.8315-0.7359-13.2472-1.1039
  c-3.3809-0.2818-6.6236,1.4719-9.9354,2.2079
  c-6.6422,1.4761-7.1448,4.5467-12.1433,7.7275
  c-2.4247,1.543,3.6797,4.4157,5.5197,6.6236
  c5.2238,6.2686-0.8763,5.2581-2.2079,13.2472
  c-0.438,2.628-2.9167,8.0211-4.4157,12.1432
  c-2.7421,7.5406-4.5402,5.8373-7.7275,9.9354
  c-1.7645,2.2686-4.4158-3.6798-6.6236-5.5197
  c-2.8454-2.3712-6.8929-6.8929-7.7275-7.7275
  c-1.1639-1.1639-10.2025,4.6375-12.1432,5.5197c-4.7708,2.1685-1.5051,0-3.3118,0
  c-6.7037,0-2.5244-1.0818-7.7275-3.3118
  c-4.0587-1.7394,0-8.8315,0-13.2472c0-9.2965-10.1382,0.9217-12.1432,1.1039
  c-0.3422,0.0311-8.0649,11.0892-8.8315,12.1432
  c-2.2724,3.1246-9.534,7.8006-12.1432,9.9354
  c-4.6775,3.827-7.1636,7.1636-11.0393,11.0393c-7.0463,7.0464-1.8185,4.711-3.2428,9.5904
  c-1.732-2.8916-3.4962-5.6879-4.4847-7.3826
  c-1.8024-3.0898-1.7913-2.3884-3.3118-4.4157
  c-1.6814-2.242,2.2079-5.1517,3.3118-7.7275
  c2.9506-6.8847,3.6235-4.6589,7.7275-9.9354
  c2.9608-3.8067,5.0212-5.7385,7.7275-8.8315
  c1.4691-1.679-3.1725-7.9312-4.4158-11.0393
  c-0.9707-2.4268-6.1506-3.5146-7.7275-4.4157
  c-4.2023-2.4013,1.4719-9.5674,2.2079-14.3511
  c1.6511-10.7319,5.057,1.6857,6.6236,2.2079
  c10.2533,3.4178,2.4596-0.2733,9.9354-1.1039
  c4.6144-0.5127,5.8273-9.1572,7.7275-12.1433
  c2.8619-4.4973,5.9088-7.386,8.8315-11.0393
  c2.5135-3.1419,3.1589-6.3178,5.5197-11.0393
  c1.0304-2.0608-1.9251-11.551-2.2078-13.2472
  c-1.2485-7.4908-3.3202-6.6403-5.5197-11.0393
  c-1.7111-3.4223-12.1383,0-13.2472,0c-5.6328,0-5.5851,7.9787-7.7275,11.0393
  c-3.4463,4.9232-10.5371,4.3905-13.2472,5.5197
  c-3.5013,1.4589-4.8139-1.8052-8.8315-3.3118
  c-3.3666-1.2625-8.1432-4.4417-12.1432-6.6236c-6.429-3.5067-4.6251-4.6251-9.9354-9.9354
  c-3.6995-3.6995-8.8126-3.6719-13.2472-5.5197
  c-7.8607-3.2753-4.0617,6.0926-6.6236,9.9354
  c-2.8459,4.2688-7.1853,7.1853-8.8315,8.8315
  c-1.3268,1.3268-3.6797,0.736-5.5197,1.1039
  c-4.746,0.9492,1.4719-9.5674,2.2079-14.3511
  c0.6464-4.2018-7.0845-7.0845-8.8315-8.8315c-3.6916-3.6916-9.0209,0-13.2472,0
  c-5.1569,0-11.1649,1.4887-16.559,2.2079
  c-4.3922,0.5856,6.6236-5.8876,9.9354-8.8315c5.3496-4.7552,0-6.1843,0-9.9354v-13.2472
  c0-6.7361-4.9076-2.9446-5.5197-3.3118c-3.5278-2.1167-3.6798,7.3595-5.5197,11.0393
  c-1.7181,3.4362-7.3596,2.2079-11.0394,3.3118
  c-2.8416,0.8525-5.8876-0.7359-8.8315-1.1039c-0.3651-0.0456-0.7359,0-1.1039,0
  c-4.0525,0,0.7868-0.3147,5.5197-2.2079
  c5.5001-2.2,7.8115-7.8115,11.0393-11.0393c3.9893-3.9893,6.1516-4.7846,9.9354-7.7275
  c2.4987-1.9434,5.1517-3.6798,7.7275-5.5197
  c2.8649-4.2974,0.7359-10.3034,1.1039-15.4551
  c0.4863-6.8092-1.8862-6.2874-3.3118-11.0393
  c-1.3612-4.5372-9.9576-4.149-13.2472-5.5197c-4.4308-1.8462-14.0246,0-15.455,0
  c-5.8314,0-6.8923-5.5139-11.0393-8.8315
  c-6.2285-4.9828-4.8442,0-11.0393,0c-4.1927,0-5.9642,8.5203-7.7275,11.0393
  c-5.3816,7.6879-3.0962,1.7693-7.7275,4.4157
  c-1.0964,0.6265-11.5853-6.7581-13.2472-7.7275
  c-4.1165-2.4013-11.8276-5.069-15.4551-6.6236
  c-4.691-2.0104-8.218-4.109-13.2472-6.6236c-7.2547-3.6274-8.2643,0-11.0393,0
  c-3.1654,0-3.6798,5.1517-5.5197,7.7275
  c-0.3474,0.4863-11.5743-7.3655-12.1432-7.7275
  c-3.1612-2.0117-11.5979-2.6764-14.3511-3.3118
  C385.3507,67.343,384.8718,67.2597,384.4731,67.2519z M1058.0101,318.2587
  C1060.5071,322.531,1055.9797,305.4759,1058.0101,318.2587
  z M367.6381,100.2319c-0.1608-0.0241-0.3381,0.0138-0.552,0.069
  c-2.5667,0.6624-8.8315,6.3476-12.1432,8.0035
  c-4.124,2.062,8.0955,4.4157,12.1432,6.6236
  c3.89,2.1218,0.736-8.8315,1.1039-13.2472
  C368.3557,100.7701,368.1206,100.3044,367.6381,100.2319z M344.3865,105.2686
  c-1.3073-0.3249-2.5068,9.4294-3.7948,12.9712
  c-1.9311,5.3106,1.3246,6.6232,2.2079,11.0393c0.6495,3.2475,6.6236,0,9.9354,0
  c2.9667,0,5.1517-2.9438,7.7275-4.4157
  c4.5914,2.5044-8.0955-6.6236-12.1432-9.9354
  c-2.4333-1.9909-2.2079-5.8876-3.3118-8.8315
  C344.8185,105.5925,344.5732,105.315,344.3865,105.2686
  z M945.9609,109.3394c-3.4063,0.2649-7.1047,1.3324-8.1415,1.1729
  c-7.7288-1.189-6.9619,5.4148-9.9354,7.7275
  c-2.2686,1.7645-3.6797,4.4157-5.5197,6.6236
  c-6.8832,8.26,1.6693,4.1732,2.2079,5.5197
  c1.4268,3.567,7.3596,2.2079,11.0393,3.3118
  c2.5524,0.7657,4.4898,2.6854,6.4856,4.5537
  c-2.1613,0.0889-6.0026,5.7957-8.6934,7.5895
  c-2.616,1.744-5.8876-2.2079-8.8315-3.3118
  c-3.8073-1.4277-7.0514,6.17-8.8315,7.7275
  c-2.829,2.4754,4.9536,9.9073,5.5197,11.0393
  l5.5197,11.0393c2.3418,4.6834-6.2056,6.2056-7.7275,7.7275
  c-3.2185,3.2185,2.2078,8.8315,3.3118,13.2472
  c2.3216,9.2864,2.7565,3.1503,7.7275,8.8315
  c0.6118,0.6992,12.7798,3.9323,14.3511,4.4157
  c10.8167,3.3282,4.9967-3.8863,9.9354-7.7275
  c3.3998-2.6443,2.9438-8.0955,4.4158-12.1433
  c10.8815-7.3056,12.3503-6.5469,18.7668-1.1039
  c3.7815,1.6206-1.4719,8.0955-2.2079,12.1433
  c-0.736,4.0477,10.9784,2.4679,12.8333-1.2419
  c0.9764-1.6274,6.6909-7.1735,7.0375-7.5895
  c0.9471-1.1366-3.822-10.5107-4.4157-12.1433
  c-0.9266-2.5482-8.48-7.5378-9.9354-8.8315
  c-4.5941-4.0836-4.8782-6.9689-7.7275-11.0393
  c-4.5172-6.4531,5.2084-10.4169,6.6236-13.2472
  c3.7665-7.5329-5.7136-8.1623-7.7275-11.0393
  c-0.4456-0.6365-9.6483-1.7542-12.1432-2.2079
  c-8.062-1.4658-4.9644-3.7233-8.8315-6.6236
  c-2.9585-2.2189,0.736-7.3596,1.1039-11.0393
  C952.4814,109.6122,949.3672,109.0745,945.9609,109.3394z M381.0233,136.1097
  c-0.1747-0.0092-0.3776,0.0215-0.552,0.069
  c-3.0225,0.8235-6.0567,8.9545-6.7616,9.6594
  c-3.9405,3.9405,2.0558,3.5977,4.4157,7.7275
  c2.3804,4.1657,8.0955-5.1517,12.1433-7.7275c3.9116,0-5.1517-5.8876-7.7275-8.8315
  C382.0415,136.4356,381.5474,136.1374,381.0233,136.1097
  z M943.4081,139.4215c0.3415,0.294,0.6796,0.6304,1.035,0.897
  c5.038,3.7785,3.3223,3.797,7.7275,8.8315c2.8939,3.3073,1.7278,9.5029,2.2078,12.1433
  c0.7677,4.2221-4.4157-7.3596-6.6236-11.0393
  C944.9492,145.5777,943.6086,140.1303,943.4081,139.4215z M402.895,148.046
  c-2.4874,0.5404,3.6568,7.5895,5.0367,11.0393
  c1.3356,3.3391,3.83-4.7253,5.9337-8.7625
  c-1.1783,0.0491-3.3661-0.5443-5.5887-1.1729
  h6.2786c1.2502-1.8753-3.658-0.5189-6.6236-0.138
  c-1.6762-0.4726-3.2951-0.8539-4.4157-0.9659
  C403.2694,148.0214,403.0608,148.01,402.895,148.046z M414.5552,149.1499
  c-0.213,0.3195-0.4653,0.7419-0.6899,1.1729
  C414.6573,150.2899,415.052,150.0193,414.5552,149.1499z M673.4275,148.598
  c-2.6825,0.2315-6.4334,4.1472-8.2795,4.9677
  c-4.2025,1.8678-2.2125,8.8501-3.3118,13.2472
  c-0.2494,0.9975,9.43,5.2389,9.9354,5.5197
  c2.198,1.2211,6.0192,11.0351,6.6236,12.1433
  c1.9701,3.6118,1.4719-8.0955,2.2079-12.1433
  c0.19-1.0451,7.1464-0.8477,11.2463-1.1039
  c7.6175-5.7131-4.7498-9.0855-6.8306-13.2472
  c-2.3733-4.7465-6.4631-5.745-9.9354-8.8315
  C674.6156,148.7341,674.0466,148.5445,673.4275,148.598
  z M1008.0572,224.7003c-2.6381,0.2455-4.4916,4.3994-5.8646,4.8987
  c-4.6533,2.5389-4.377,21.5942,1.0349,15.5931
  c2.3779,3.1706,2.9438,7.3595,4.4157,11.0393
  c1.7394,4.3486,4.1398-6.6236,7.4515-9.9354
  c4.866-4.866,3.7827,3.2423,7.7275,6.6236
  c4.4154,3.7846-3.0046,11.0171-3.3118,12.1433
  c-1.1039,4.0477-8.0955-2.2079-12.1432-3.3118
  c-1.743-0.4754,2.0844,12.506,2.2078,13.2472
  c0.8332,4.9993,8.1836,5.7285,11.0394,7.7275
  c2.3719,1.6603,12.6651-1.8093,15.455-2.2079
  c10.2783-1.4683,3.7195-2.7896,8.8315-6.6236
  c0.16-0.1201,3.1353-13.5862,3.3118-14.3511
  c4.5021-0.8186-11.0409-12.0445-12.1433-13.2472
  c-2.1244-2.3176-5.8876-2.2079-8.8314-3.3118
  c-2.4971-0.7995-4.2206-4.8235-7.7275-8.8315
  c-3.5261-4.0298-5.5845-5.1706-8.5555-8.1415
  C1009.8835,224.9398,1008.9365,224.6185,1008.0572,224.7003
  z M641.9655,325.2962
  c1.7955,5.311,2.087,9.5688-2.2079,13.7302c-0.1147,0.1529-0.2285,0.2785-0.345,0.414
  c0.4979-1.7909,0.8447-3.7985,2.5529-5.9336
  C643.3578,331.7661,642.8372,328.3506,641.9655,325.2962
  z M67.4373,979.1005c0.088,0.0036,0.1873-0.0067,0.276,0
  v0.069
  C67.6294,979.1497,67.5294,979.1128,67.4373,979.1005
  z M67.5753,1137.0319
  l0.345,0.1381
  c1.3803,0.5751,2.213,0.7982,2.8288,0.8279
  v1.035
  C69.5693,1138.6238,68.6252,1137.8041,67.5753,1137.0319z" />
</svg>